<?xml version="1.0" encoding="UTF-8"?>
<!DOCTYPE svg PUBLIC "-//W3C//DTD SVG 1.1//EN" "http://www.w3.org/Graphics/SVG/1.1/DTD/svg11.dtd">
<!-- Creator: CorelDRAW -->
<svg xmlns="http://www.w3.org/2000/svg" xml:space="preserve" width="21.9892mm" height="15.538mm" version="1.1" style="shape-rendering:geometricPrecision; text-rendering:geometricPrecision; image-rendering:optimizeQuality; fill-rule:evenodd; clip-rule:evenodd"
viewBox="0 0 14.48 10.23"
 xmlns:xlink="http://www.w3.org/1999/xlink"
 xmlns:xodm="http://www.corel.com/coreldraw/odm/2003">
 <defs>
  <style type="text/css">
   <![CDATA[
    .fil3 {fill:none}
    .fil6 {fill:#FEFEFE}
    .fil2 {fill:#FEFEFE}
    .fil8 {fill:#E6E7E8}
    .fil10 {fill:#7700FF}
    .fil5 {fill:url(#id15)}
    .fil9 {fill:url(#id16)}
    .fil1 {fill:url(#id17)}
    .fil0 {fill:url(#id18)}
    .fil4 {fill:url(#id19)}
    .fil7 {fill:url(#id20)}
   ]]>
  </style>
    <clipPath id="id0">
     <path d="M5.31 6.32c-0.53,1.36 -0.9,2.15 -1.11,2.37 0.68,1.15 1.35,1.26 2,0.32 0.51,-0.74 1.12,-2.67 1.5,-3.6 0.83,-2.06 1.48,-3.58 1.95,-4.56 0.16,-0.33 0.3,-0.61 0.41,-0.81 -0.63,-0.08 -1.18,-0.01 -1.65,0.22 -1.06,0.5 -1.25,1.35 -1.65,2.35 -0.42,1.06 -0.9,2.3 -1.44,3.72z"/>
    </clipPath>
      <mask id="id1">
  <linearGradient id="id2" gradientUnits="userSpaceOnUse" x1="4.46" y1="7.33" x2="9.67" y2="1.61">
   <stop offset="0" style="stop-opacity:0.14902; stop-color:white"/>
   <stop offset="1" style="stop-opacity:0.0509804; stop-color:white"/>
  </linearGradient>
       <rect style="fill:url(#id2)" x="4.02" y="-0.07" width="6.1" height="9.08"/>
      </mask>
    <mask id="id3">
  <linearGradient id="id4" gradientUnits="userSpaceOnUse" x1="8.66" y1="5.37" x2="13.19" y2="5.37">
   <stop offset="0" style="stop-opacity:0; stop-color:white"/>
   <stop offset="1" style="stop-opacity:1; stop-color:white"/>
  </linearGradient>
     <rect style="fill:url(#id4)" x="8.66" y="0.85" width="4.53" height="9.05"/>
    </mask>
    <mask id="id5">
  <linearGradient id="id6" gradientUnits="userSpaceOnUse" x1="9.39" y1="3.69" x2="12.65" y2="9.3">
   <stop offset="0" style="stop-opacity:0.101961; stop-color:white"/>
   <stop offset="1" style="stop-opacity:0.431373; stop-color:white"/>
  </linearGradient>
     <rect style="fill:url(#id6)" x="8.54" y="3.03" width="4.98" height="6.92"/>
    </mask>
    <mask id="id7">
  <linearGradient id="id8" gradientUnits="userSpaceOnUse" x1="4.67" y1="5" x2="10.06" y2="4.67">
   <stop offset="0" style="stop-opacity:0; stop-color:white"/>
   <stop offset="1" style="stop-opacity:0.368627; stop-color:white"/>
  </linearGradient>
     <rect style="fill:url(#id8)" x="4.68" y="0.03" width="5.37" height="9.61"/>
    </mask>
    <mask id="id9">
  <linearGradient id="id10" gradientUnits="userSpaceOnUse" x1="4.36" y1="6.62" x2="-0.3" y2="1.28">
   <stop offset="0" style="stop-opacity:0; stop-color:white"/>
   <stop offset="1" style="stop-opacity:0.509804; stop-color:white"/>
  </linearGradient>
     <rect style="fill:url(#id10)" y="0.05" width="4.65" height="8.01"/>
    </mask>
    <mask id="id11">
  <linearGradient id="id12" gradientUnits="userSpaceOnUse" x1="13.57" y1="8.45" x2="7.9" y2="1.81">
   <stop offset="0" style="stop-opacity:0; stop-color:white"/>
   <stop offset="1" style="stop-opacity:0.458824; stop-color:white"/>
  </linearGradient>
     <rect style="fill:url(#id12)" x="7.65" y="0.03" width="6.17" height="10.2"/>
    </mask>
    <mask id="id13">
  <linearGradient id="id14" gradientUnits="userSpaceOnUse" x1="-0.08" y1="2.86" x2="5.39" y2="5.88">
   <stop offset="0" style="stop-opacity:0; stop-color:white"/>
   <stop offset="1" style="stop-opacity:0.458824; stop-color:white"/>
  </linearGradient>
     <rect style="fill:url(#id14)" y="0.05" width="5.31" height="8.64"/>
    </mask>
  <linearGradient id="id15" gradientUnits="userSpaceOnUse" x1="8.66" y1="5.37" x2="13.19" y2="5.37">
   <stop offset="0" style="stop-opacity:1; stop-color:#34BBF1"/>
   <stop offset="1" style="stop-opacity:1; stop-color:white"/>
  </linearGradient>
  <linearGradient id="id16" gradientUnits="userSpaceOnUse" x1="9.61" y1="7.86" x2="14.48" y2="7.86">
   <stop offset="0" style="stop-opacity:1; stop-color:#181D9F"/>
   <stop offset="1" style="stop-opacity:1; stop-color:#32BAE8"/>
  </linearGradient>
  <linearGradient id="id17" gradientUnits="userSpaceOnUse" x1="5.59" y1="9.21" x2="8.66" y2="0.43">
   <stop offset="0" style="stop-opacity:1; stop-color:#3200A6"/>
   <stop offset="0.490196" style="stop-opacity:1; stop-color:#2D73E2"/>
   <stop offset="1" style="stop-opacity:1; stop-color:#37DBF7"/>
  </linearGradient>
  <linearGradient id="id18" gradientUnits="userSpaceOnUse" x1="4.97" y1="7.36" x2="0.34" y2="1.38">
   <stop offset="0" style="stop-opacity:1; stop-color:#181D9F"/>
   <stop offset="1" style="stop-opacity:1; stop-color:#37DBF7"/>
  </linearGradient>
  <linearGradient id="id19" gradientUnits="userSpaceOnUse" x1="7.64" y1="2.56" x2="13.84" y2="7.7">
   <stop offset="0" style="stop-opacity:1; stop-color:#181D9F"/>
   <stop offset="1" style="stop-opacity:1; stop-color:#00A6FF"/>
  </linearGradient>
  <linearGradient id="id20" gradientUnits="userSpaceOnUse" x1="4.97" y1="7.36" x2="0.34" y2="1.38">
   <stop offset="0" style="stop-opacity:1; stop-color:#181D9F"/>
   <stop offset="1" style="stop-opacity:1; stop-color:#00D9FF"/>
  </linearGradient>
 </defs>
 <g id="Camada_x0020_1">
  <metadata id="CorelCorpID_0Corel-Layer"/>
  <g id="_2912098620560">
   <path class="fil0" d="M4.2 8.69c0.21,-0.22 0.58,-1.01 1.11,-2.37 -1.03,-2.35 -1.49,-4.22 -2.23,-5.19 -0.87,-1.14 -1.72,-1.1 -3.08,-1.07 0.4,0.23 0.87,0.83 1.12,1.22 0.86,1.36 1.53,3.84 3.08,7.41z"/>
   <path class="fil1" d="M5.31 6.32c-0.53,1.36 -0.9,2.15 -1.11,2.37 0.68,1.15 1.35,1.26 2,0.32 0.51,-0.74 1.12,-2.67 1.5,-3.6 0.83,-2.06 1.48,-3.58 1.95,-4.56 0.16,-0.33 0.3,-0.61 0.41,-0.81 -0.63,-0.08 -1.18,-0.01 -1.65,0.22 -1.06,0.5 -1.25,1.35 -1.65,2.35 -0.42,1.06 -0.9,2.3 -1.44,3.72z"/>
   <g style="clip-path:url(#id0)">
    <g>
     <path id="_1" class="fil2" style="mask:url(#id1)" d="M4.28 8.94c0.23,-0.35 0.59,-1.12 1.07,-2.32 0.58,-1.49 1.24,-3.36 1.69,-4.46 0.43,-1.05 0.57,-1.46 1.65,-1.98 0.41,-0.2 0.9,-0.17 1.36,-0.15 0,-0 0,-0 0,-0 -0.45,-0.06 -0.87,-0.04 -1.24,0.07 -0.14,0.04 -0.28,0.09 -0.41,0.15 -1.06,0.5 -1.25,1.35 -1.65,2.35 -0.42,1.06 -0.9,2.3 -1.44,3.72 -0.53,1.36 -1.02,2.35 -1.23,2.57 0.06,0.1 0.14,-0.03 0.2,0.05z"/>
    </g>
   </g>
   <path class="fil3" d="M5.31 6.32c-0.53,1.36 -0.9,2.15 -1.11,2.37 0.68,1.15 1.35,1.26 2,0.32 0.51,-0.74 1.12,-2.67 1.5,-3.6 0.83,-2.06 1.48,-3.58 1.95,-4.56 0.16,-0.33 0.3,-0.61 0.41,-0.81 -0.63,-0.08 -1.18,-0.01 -1.65,0.22 -1.06,0.5 -1.25,1.35 -1.65,2.35 -0.42,1.06 -0.9,2.3 -1.44,3.72z"/>
   <path class="fil4" d="M7.65 6.46c-0.02,1.38 0.39,2.41 1.21,2.98 1.01,0.71 2.25,1.02 3.41,0.59 0.63,-0.23 1.16,-0.63 1.55,-1.15 -1.26,1.43 -3.1,0.94 -3.83,-0.93 -0.22,-0.56 -0.37,-1.24 -0.38,-2.01l0.44 -5.92c-0.63,1.01 -1.53,3.32 -2.36,5.38 -0.02,0.09 -0.04,0.95 -0.04,1.05z"/>
   <path class="fil5" style="mask:url(#id3)" d="M8.67 3.03c-0.02,0.79 -0.02,1.93 0.01,2.77 0.01,0.47 0.05,0.91 0.1,1.27 0.01,0.06 0.02,0.12 0.03,0.18 0.24,1.09 1.08,2.18 2.16,2.53 0.77,0.25 1.54,0.07 2.21,-0.36 -1.61,0.96 -3.59,-0.55 -3.58,-3.48l-0.1 -5.1c-0.23,0.48 -0.38,1.1 -0.69,1.85 -0.05,0.11 -0.1,0.22 -0.14,0.34z"/>
   <path class="fil2" style="mask:url(#id5)" d="M8.68 5.8c-0.03,-0.84 -0.02,-1.98 -0.01,-2.77 -0.04,0.1 -0.09,0.2 -0.13,0.31 -0.01,0.91 -0.01,1.82 -0,2.46 0,0.47 0.02,0.9 0.08,1.29 0.04,0.24 0.11,0.48 0.19,0.71 0.73,1.89 2.96,2.99 4.7,1.41 -0.1,0.09 -0.21,0.16 -0.33,0.23 -0.67,0.42 -1.44,0.6 -2.21,0.36 -1.08,-0.35 -1.92,-1.44 -2.16,-2.53 -0.01,-0.06 -0.02,-0.12 -0.03,-0.18 -0.06,-0.36 -0.09,-0.8 -0.1,-1.27z"/>
   <path class="fil6" style="mask:url(#id7)" d="M6.84 7.42c-0.61,1.57 -1.21,2.4 -2.16,1.91 0.51,0.5 1.02,0.39 1.52,-0.32 0.51,-0.74 1.12,-2.67 1.5,-3.6 0.31,-0.76 0.59,-1.45 0.85,-2.07 0.04,-0.1 0.09,-0.21 0.13,-0.31 0.05,-0.12 0.1,-0.23 0.14,-0.34 0.32,-0.75 0.59,-1.36 0.82,-1.85 0.16,-0.33 0.3,-0.61 0.41,-0.81 -0.45,0.73 -0.86,1.55 -1.24,2.4 -0.74,1.66 -1.38,3.45 -1.97,4.99z"/>
   <path class="fil7" d="M4.2 8.69c0,-0 0.01,-0.01 0.01,-0.01l0 -0c0,-0 0.01,-0.01 0.01,-0.01l0 -0c0,-0 0.01,-0.01 0.01,-0.01l0 -0c0,-0 0.01,-0.01 0.01,-0.01l0 -0 0 -0c0,-0 0.01,-0.01 0.01,-0.01l0 -0c0,-0 0.01,-0.01 0.01,-0.01l0 -0c0,-0 0.01,-0.01 0.01,-0.02l0 -0 0 -0c0,-0.01 0.01,-0.01 0.01,-0.02l0 -0c0,-0.01 0.01,-0.01 0.01,-0.02l0 -0c0,-0.01 0.01,-0.01 0.01,-0.02l0 -0c0,-0.01 0.01,-0.01 0.01,-0.02l0 -0c0,-0.01 0.01,-0.01 0.01,-0.02l0 -0c0,-0.01 0.01,-0.01 0.01,-0.02l0 -0c0,-0.01 0.01,-0.01 0.01,-0.02l0 -0 0 -0c0,-0.01 0.01,-0.01 0.01,-0.02l0 -0 0 -0c0,-0.01 0.01,-0.01 0.01,-0.02l0 -0c0.01,-0.02 0.02,-0.03 0.03,-0.05l0 -0c0,-0.01 0.01,-0.02 0.01,-0.02l0 -0c0.01,-0.02 0.02,-0.03 0.03,-0.05l0 -0c0,-0.01 0.01,-0.02 0.01,-0.03l0 -0c0,-0.01 0.01,-0.02 0.01,-0.03l0 -0c0,-0.01 0.01,-0.02 0.01,-0.03l0 -0 0.01 -0.03 0 -0 0 -0c0.01,-0.02 0.02,-0.04 0.03,-0.06l0 -0c0,-0.01 0.01,-0.02 0.01,-0.03l0 -0 0 -0c-0.85,-2.39 -1.45,-4.68 -2.3,-6.03 -0.53,-0.83 -1.43,-1.54 -2.19,-1.93 0,0 0,0 0.01,0.01 0,0 0.01,0 0.01,0.01 0,0 0.01,0.01 0.01,0.01l0.01 0.01c0,0 0.01,0.01 0.01,0.01l0.01 0.01c0,0 0.01,0.01 0.01,0.01 0,0 0.01,0 0.01,0.01l0 0c0.01,0 0.01,0.01 0.02,0.01l0 0 0 0c0.01,0 0.01,0.01 0.02,0.01l0.01 0c0,0 0.01,0.01 0.01,0.01l0.01 0.01c0,0 0.01,0.01 0.01,0.01l0.01 0.01 0.01 0.01 0.01 0.01 0.01 0.01 0.01 0.01 0.01 0.01 0.01 0.01 0.01 0.01 0.01 0.01 0.01 0.01 0.01 0.01 0.01 0.01 0.01 0.01 0.01 0.01 0.01 0.01 0.01 0.01 0.01 0.01c0,0 0.01,0.01 0.01,0.01l0.01 0.01 0.01 0.01 0.01 0.01 0 0c0.01,0.01 0.01,0.01 0.02,0.02l0 0c0.01,0.01 0.01,0.01 0.02,0.02l0 0 0.01 0.01 0.01 0.01 0.01 0.01 0.01 0.01 0.01 0.01 0.01 0.01 0.01 0.01 0.01 0.01 0.01 0.01 0.01 0.01 0.01 0.01 0.01 0.01 0.01 0.01 0.01 0.01 0.01 0.01 0.01 0.01 0.01 0.01 0.01 0.01 0.01 0.01 0.01 0.01 0.01 0.01 0.01 0.01 0.01 0.01 0 0c0.01,0.01 0.01,0.01 0.02,0.02l0 0 0.02 0.02 0.01 0.01 0.01 0.01 0.01 0.01 0.01 0.01 0.01 0.01 0.01 0.01 0.01 0.01 0.01 0.01 0.01 0.01 0.01 0.01 0.01 0.01 0.01 0.01 0.01 0.01 0.01 0.01 0.01 0.01 0.01 0.01 0.01 0.01 0.01 0.01 0.01 0.01 0.01 0.01 0.01 0.01 0.01 0.01 0.01 0.01 0.01 0.02 0 0c0.01,0.01 0.01,0.01 0.02,0.02l0 0c0,0.01 0.01,0.01 0.01,0.02l0 0 0.01 0.02 0 0 0.01 0.01 0.01 0.01 0.01 0.01 0.01 0.01 0.01 0.01 0.01 0.01 0.01 0.01 0.01 0.01 0.01 0.01 0.01 0.01 0.01 0.01 0.01 0.01 0.01 0.01 0.01 0.01 0.01 0.01 0.01 0.01 0.01 0.01 0.01 0.01 0 0.01 0.01 0.01 0.01 0.01 0 0 0.01 0.02 0 0c0,0.01 0.01,0.01 0.01,0.02 0.86,1.36 1.53,3.84 3.08,7.41zm-3.29 -7.71c0.01,0.01 0.01,0.01 0.02,0.02"/>
   <path class="fil8" style="mask:url(#id9)" d="M4.57 8.06c-0.85,-2.39 -1.45,-4.68 -2.3,-6.03 -0.53,-0.83 -1.43,-1.54 -2.19,-1.93 -0.03,-0.02 -0.05,-0.04 -0.08,-0.05l0.05 -0c0.88,0.38 1.84,1.11 2.33,1.91 0.95,1.58 1.64,4.21 2.27,5.94l-0 0 -0.07 0.15 0 0 -0 0 -0 0 -0 0 -0 0z"/>
   <path class="fil9" d="M9.61 5.95c0,3.45 2.65,4.9 4.21,2.94 0.33,-0.44 0.56,-0.96 0.65,-1.52 -0.59,1.05 -1.83,1.56 -2.99,1.22 -1.16,-0.34 -1.94,-1.43 -1.87,-2.64z"/>
   <path class="fil10" style="mask:url(#id11)" d="M7.65 6.46c-0.02,1.38 0.39,2.41 1.21,2.98 1.01,0.71 2.25,1.02 3.41,0.59 0.63,-0.23 1.16,-0.63 1.55,-1.15 -1.26,1.43 -3.1,0.94 -3.83,-0.93 -0.22,-0.56 -0.37,-1.24 -0.38,-2.01l0.44 -5.92c-0.59,0.92 -1.53,3.32 -2.36,5.38 -0.02,0.09 -0.04,0.95 -0.04,1.05z"/>
   <path class="fil10" style="mask:url(#id13)" d="M0.08 0.11c0,0 0,0 0,0 2.08,1.08 3.87,2 -0,-0zm4.56 7.8c0.18,-0.39 0.4,-0.92 0.66,-1.59 -1.03,-2.35 -1.49,-4.22 -2.23,-5.19 -0.86,-1.13 -1.69,-1.1 -3.03,-1.08l0 0c-0.02,0 -0.03,0 -0.05,0 0.03,0.02 0.05,0.03 0.08,0.05 0,0 0,0 0,0 0,0 0,0 0,0 0,0 0,0 0.01,0 0,0 0.01,0 0.01,0.01 0,0 0.01,0.01 0.01,0.01 0,0 0,0 0.01,0.01 0,0 0.01,0.01 0.01,0.01 0,0 0.01,0 0.01,0.01 0,0 0.01,0.01 0.01,0.01 0,0 0.01,0 0.01,0.01 0,0 0,0 0,0 0.01,0 0.01,0.01 0.02,0.01 0,0 0,0 0,0 0,0 0,0 0,0 0.01,0 0.01,0.01 0.02,0.01 0,0 0,0 0.01,0 0,0 0.01,0.01 0.01,0.01 0,0 0.01,0 0.01,0.01 0,0 0.01,0.01 0.01,0.01 0,0 0.01,0 0.01,0.01 0,0 0.01,0.01 0.01,0.01 0,0 0.01,0 0.01,0.01 0,0 0.01,0.01 0.01,0.01 0,0 0.01,0 0.01,0.01 0,0 0.01,0.01 0.01,0.01 0,0 0.01,0.01 0.01,0.01 0,0 0.01,0.01 0.01,0.01 0,0 0,0 0.01,0.01 0,0 0.01,0.01 0.01,0.01 0,0 0.01,0 0.01,0.01 0,0 0.01,0.01 0.01,0.01 0,0 0.01,0.01 0.01,0.01 0,0 0.01,0.01 0.01,0.01 0,0 0.01,0.01 0.01,0.01 0,0 0.01,0.01 0.01,0.01 0,0 0,0 0.01,0.01 0,0 0.01,0.01 0.01,0.01 0,0 0,0 0.01,0.01 0,0 0.01,0.01 0.01,0.01 0,0 0,0 0.01,0.01 0,0 0,0 0,0 0.01,0.01 0.01,0.01 0.02,0.02 0,0 0,0 0,0 0.01,0.01 0.01,0.01 0.02,0.02 0,0 0,0 0,0 0,0 0.01,0.01 0.01,0.01 0,0 0.01,0.01 0.01,0.01 0,0 0.01,0.01 0.01,0.01 0,0 0,0.01 0.01,0.01 0,0 0.01,0.01 0.01,0.01 0,0 0.01,0.01 0.01,0.01 0,0 0.01,0.01 0.01,0.01 0,0 0.01,0.01 0.01,0.01 0,0 0.01,0.01 0.01,0.01 0,0 0.01,0.01 0.01,0.01 0,0 0.01,0.01 0.01,0.01 0,0 0.01,0.01 0.01,0.01 0,0 0.01,0.01 0.01,0.01 0,0 0.01,0.01 0.01,0.01 0,0 0.01,0.01 0.01,0.01 0,0 0.01,0.01 0.01,0.01 0,0 0.01,0.01 0.01,0.01 0,0 0.01,0.01 0.01,0.01 0,0 0,0.01 0.01,0.01 0,0 0.01,0.01 0.01,0.01 0,0 0.01,0.01 0.01,0.01 0,0 0.01,0.01 0.01,0.01 0,0 0.01,0.01 0.01,0.01 0,0 0,0 0,0 0.01,0.01 0.01,0.01 0.02,0.02 0,0 0,0 0,0 0.01,0.01 0.01,0.01 0.02,0.02 0,0 0.01,0.01 0.01,0.01 0,0 0,0.01 0.01,0.01 0,0 0.01,0.01 0.01,0.01 0,0 0.01,0.01 0.01,0.01 0,0 0.01,0.01 0.01,0.01 0,0 0.01,0.01 0.01,0.01 0,0 0.01,0.01 0.01,0.01 0,0 0.01,0.01 0.01,0.01 0,0 0.01,0.01 0.01,0.01 0,0 0.01,0.01 0.01,0.01 0,0 0.01,0.01 0.01,0.01 0,0 0,0.01 0.01,0.01 0,0 0.01,0.01 0.01,0.01 0,0 0,0.01 0.01,0.01 0,0 0.01,0.01 0.01,0.01 0,0 0,0.01 0.01,0.01 0,0 0.01,0.01 0.01,0.01 0,0 0.01,0.01 0.01,0.01 0,0 0,0.01 0.01,0.01 0,0 0.01,0.01 0.01,0.01 0,0 0.01,0.01 0.01,0.01 0,0 0.01,0.01 0.01,0.01 0,0 0.01,0.01 0.01,0.01 0,0.01 0.01,0.01 0.01,0.02 0,0 0,0 0,0 0.01,0.01 0.01,0.01 0.02,0.02 0,0 0,0 0,0 0,0.01 0.01,0.01 0.01,0.02l0 0c0,0.01 0.01,0.01 0.01,0.02 0,0 0,0 0,0 0,0 0.01,0.01 0.01,0.01 0,0 0,0.01 0.01,0.01 0,0 0.01,0.01 0.01,0.01 0,0 0,0.01 0.01,0.01 0,0 0,0.01 0.01,0.01 0,0 0.01,0.01 0.01,0.01 0,0 0,0.01 0.01,0.01 0,0 0,0.01 0.01,0.01 0,0 0,0.01 0.01,0.01 0,0 0.01,0.01 0.01,0.01 0,0 0,0.01 0.01,0.01 0,0 0.01,0.01 0.01,0.01 0,0 0,0.01 0.01,0.01 0,0 0,0.01 0.01,0.01 0,0 0,0.01 0.01,0.01 0,0 0,0.01 0.01,0.01 0,0 0,0.01 0.01,0.01 0,0 0.01,0.01 0.01,0.01 0,0 0,0 0,0.01 0,0 0,0.01 0.01,0.01 0,0 0,0.01 0.01,0.01 0,0 0,0 0,0 0,0.01 0.01,0.01 0.01,0.02 0,0 0,0 0,0 0,0.01 0.01,0.01 0.01,0.02 0.86,1.36 1.53,3.84 3.08,7.41 0,-0 0.01,-0.01 0.01,-0.01l0 -0c0,-0 0.01,-0.01 0.01,-0.01l0 -0c0,-0 0.01,-0.01 0.01,-0.01l0 -0c0,-0 0.01,-0.01 0.01,-0.01l0 -0 0 -0c0,-0 0.01,-0.01 0.01,-0.01l0 -0c0,-0 0.01,-0.01 0.01,-0.01l0 -0c0,-0 0.01,-0.01 0.01,-0.02l0 -0c0,-0 0,-0 0,-0 0,-0.01 0.01,-0.01 0.01,-0.02l0 -0c0,-0.01 0.01,-0.01 0.01,-0.02l0 -0c0,-0.01 0.01,-0.01 0.01,-0.02l0 -0c0,-0.01 0.01,-0.01 0.01,-0.02l0 -0c0,-0.01 0.01,-0.01 0.01,-0.02l0 -0c0,-0.01 0.01,-0.01 0.01,-0.02l0 -0c0,-0.01 0.01,-0.01 0.01,-0.02l0 -0c0,-0 0,-0 0,-0 0,-0.01 0.01,-0.01 0.01,-0.02 0,-0 0,-0 0,-0l0 -0c0,-0.01 0.01,-0.01 0.01,-0.02l0 -0c0.01,-0.02 0.02,-0.03 0.03,-0.05l0 -0c0,-0.01 0.01,-0.02 0.01,-0.02l0 -0c0.01,-0.02 0.02,-0.03 0.03,-0.05l0 -0c0,-0.01 0.01,-0.02 0.01,-0.03 0,-0 0,-0 0,-0 0,-0.01 0.01,-0.02 0.01,-0.03l0 -0c0,-0.01 0.01,-0.02 0.01,-0.03l0 -0 0.01 -0.03 0 -0c0,-0 0,-0 0,-0 0.01,-0.02 0.02,-0.04 0.03,-0.06l0 -0c0,-0.01 0.01,-0.02 0.01,-0.03l0 -0 0 -0 0 -0 0 -0 0 -0 0 -0 0.07 -0.15 0 -0z"/>
  </g>
 </g>
</svg>
