<?xml version="1.0" encoding="UTF-8"?>
<!DOCTYPE svg PUBLIC "-//W3C//DTD SVG 1.1//EN" "http://www.w3.org/Graphics/SVG/1.1/DTD/svg11.dtd">
<!-- Creator: CorelDRAW -->
<svg xmlns="http://www.w3.org/2000/svg" xml:space="preserve" width="276.157mm" height="276.157mm" version="1.1" style="shape-rendering:geometricPrecision; text-rendering:geometricPrecision; image-rendering:optimizeQuality; fill-rule:evenodd; clip-rule:evenodd"
viewBox="0 0 7629.44 7629.44"
 xmlns:xlink="http://www.w3.org/1999/xlink"
 xmlns:xodm="http://www.corel.com/coreldraw/odm/2003">
 <defs>
  <style type="text/css">
   <![CDATA[
    .fil4 {fill:none}
    .fil0 {fill:#FEFEFE}
    .fil3 {fill:#FEFEFE}
    .fil8 {fill:#E6E7E8}
    .fil10 {fill:#7700FF}
    .fil9 {fill:url(#id15)}
    .fil6 {fill:url(#id16)}
    .fil5 {fill:url(#id17)}
    .fil2 {fill:url(#id18)}
    .fil1 {fill:url(#id19)}
    .fil7 {fill:url(#id20)}
   ]]>
  </style>
     <clipPath id="id0">
      <path d="M3037.03 4300.43c-213.36,546.82 -362.54,865.46 -447.54,955.92 274.8,464.27 543.29,507.17 805.46,128.73 206.81,-298.57 453.13,-1078.62 603.48,-1451.59 335,-830.99 596.88,-1444.6 785.64,-1840.81 64.18,-134.73 119.91,-244.32 167.19,-328.77 -252.61,-31.68 -474.71,-2.73 -666.28,86.83 -429.22,200.67 -505.49,545.05 -667.5,949.48 -170.58,425.8 -364.06,925.87 -580.45,1500.21z"/>
     </clipPath>
       <mask id="id1">
  <linearGradient id="id2" gradientUnits="userSpaceOnUse" x1="2696.05" y1="4710.41" x2="4797.69" y2="2400.94">
   <stop offset="0" style="stop-opacity:0.14902; stop-color:white"/>
   <stop offset="1" style="stop-opacity:0.0509804; stop-color:white"/>
  </linearGradient>
        <rect style="fill:url(#id2)" x="2539.72" y="1748.73" width="2414.29" height="3613.89"/>
       </mask>
     <mask id="id3">
  <linearGradient id="id4" gradientUnits="userSpaceOnUse" x1="4388.28" y1="3917.67" x2="6214.75" y2="3917.67">
   <stop offset="0" style="stop-opacity:0; stop-color:white"/>
   <stop offset="1" style="stop-opacity:1; stop-color:white"/>
  </linearGradient>
      <rect style="fill:url(#id4)" x="4388.28" y="2092.69" width="1826.47" height="3649.97"/>
     </mask>
     <mask id="id5">
  <linearGradient id="id6" gradientUnits="userSpaceOnUse" x1="4684.45" y1="3239.75" x2="5999.95" y2="5501.53">
   <stop offset="0" style="stop-opacity:0.101961; stop-color:white"/>
   <stop offset="1" style="stop-opacity:0.431373; stop-color:white"/>
  </linearGradient>
      <rect style="fill:url(#id6)" x="4338.29" y="2974.36" width="2007.82" height="2792.56"/>
     </mask>
     <mask id="id7">
  <linearGradient id="id8" gradientUnits="userSpaceOnUse" x1="2780.73" y1="3769.49" x2="4953.73" y2="3634.44">
   <stop offset="0" style="stop-opacity:0; stop-color:white"/>
   <stop offset="1" style="stop-opacity:0.368627; stop-color:white"/>
  </linearGradient>
      <rect style="fill:url(#id8)" x="2783.2" y="1763.91" width="2168.05" height="3876.1"/>
     </mask>
     <mask id="id9">
  <linearGradient id="id10" gradientUnits="userSpaceOnUse" x1="2655.18" y1="4421.2" x2="773.22" y2="2268.48">
   <stop offset="0" style="stop-opacity:0; stop-color:white"/>
   <stop offset="1" style="stop-opacity:0.509804; stop-color:white"/>
  </linearGradient>
      <rect style="fill:url(#id10)" x="894.84" y="1773.35" width="1874.27" height="3231.51"/>
     </mask>
     <mask id="id11">
  <linearGradient id="id12" gradientUnits="userSpaceOnUse" x1="6369.78" y1="5159.88" x2="4083.19" y2="2481.97">
   <stop offset="0" style="stop-opacity:0; stop-color:white"/>
   <stop offset="1" style="stop-opacity:0.458824; stop-color:white"/>
  </linearGradient>
      <rect style="fill:url(#id12)" x="3982.25" y="1763.91" width="2488.48" height="4114.03"/>
     </mask>
     <mask id="id13">
  <linearGradient id="id14" gradientUnits="userSpaceOnUse" x1="862.44" y1="2904.27" x2="3069.43" y2="4122.64">
   <stop offset="0" style="stop-opacity:0; stop-color:white"/>
   <stop offset="1" style="stop-opacity:0.458824; stop-color:white"/>
  </linearGradient>
      <rect style="fill:url(#id14)" x="894.84" y="1770.55" width="2142.19" height="3485.8"/>
     </mask>
  <linearGradient id="id15" gradientUnits="userSpaceOnUse" x1="4770.85" y1="4920.85" x2="6734.6" y2="4920.85">
   <stop offset="0" style="stop-opacity:1; stop-color:#181D9F"/>
   <stop offset="1" style="stop-opacity:1; stop-color:#32BAE8"/>
  </linearGradient>
  <linearGradient id="id16" gradientUnits="userSpaceOnUse" x1="4388.28" y1="3917.67" x2="6214.75" y2="3917.67">
   <stop offset="0" style="stop-opacity:1; stop-color:#34BBF1"/>
   <stop offset="1" style="stop-opacity:1; stop-color:white"/>
  </linearGradient>
  <linearGradient id="id17" gradientUnits="userSpaceOnUse" x1="3975.34" y1="2783.85" x2="6477.63" y2="4858">
   <stop offset="0" style="stop-opacity:1; stop-color:#181D9F"/>
   <stop offset="1" style="stop-opacity:1; stop-color:#00A6FF"/>
  </linearGradient>
  <linearGradient id="id18" gradientUnits="userSpaceOnUse" x1="3150.55" y1="5466.51" x2="4390.19" y2="1925">
   <stop offset="0" style="stop-opacity:1; stop-color:#3200A6"/>
   <stop offset="0.490196" style="stop-opacity:1; stop-color:#2D73E2"/>
   <stop offset="1" style="stop-opacity:1; stop-color:#37DBF7"/>
  </linearGradient>
  <linearGradient id="id19" gradientUnits="userSpaceOnUse" x1="2900.95" y1="4719.02" x2="1030.91" y2="2307.89">
   <stop offset="0" style="stop-opacity:1; stop-color:#181D9F"/>
   <stop offset="1" style="stop-opacity:1; stop-color:#37DBF7"/>
  </linearGradient>
  <linearGradient id="id20" gradientUnits="userSpaceOnUse" x1="2900.95" y1="4719.02" x2="1030.91" y2="2307.89">
   <stop offset="0" style="stop-opacity:1; stop-color:#181D9F"/>
   <stop offset="1" style="stop-opacity:1; stop-color:#00D9FF"/>
  </linearGradient>
 </defs>
 <g id="Camada_x0020_1">
  <metadata id="CorelCorpID_0Corel-Layer"/>
  <g id="_2794165010784">
   <rect class="fil0" width="7629.44" height="7629.44"/>
   <g>
    <path class="fil1" d="M2589.49 5256.35c84.99,-90.47 234.17,-409.11 447.54,-955.92 -414.82,-946.27 -601.7,-1703.27 -900.29,-2093.07 -352.7,-460.45 -692.28,-443.09 -1241.9,-433.65 160.78,92.52 352.87,334.2 453.64,494.01 346.31,549.2 616.8,1549.39 1241.01,2988.63z"/>
    <path class="fil2" d="M3037.03 4300.43c-213.36,546.82 -362.54,865.46 -447.54,955.92 274.8,464.27 543.29,507.17 805.46,128.73 206.81,-298.57 453.13,-1078.62 603.48,-1451.59 335,-830.99 596.88,-1444.6 785.64,-1840.81 64.18,-134.73 119.91,-244.32 167.19,-328.77 -252.61,-31.68 -474.71,-2.73 -666.28,86.83 -429.22,200.67 -505.49,545.05 -667.5,949.48 -170.58,425.8 -364.06,925.87 -580.45,1500.21z"/>
    <g style="clip-path:url(#id0)">
     <g>
      <path id="_1" class="fil3" style="mask:url(#id1)" d="M2621.75 5359.86c92.99,-142.09 236.62,-451.09 431.99,-934.64 234.81,-600.25 498.78,-1354.63 683.01,-1799.64 174.98,-422.67 231.15,-589.56 666.81,-799.26 167.33,-80.55 362.67,-69.55 547.51,-62.1 0.06,-0.1 0.11,-0.2 0.17,-0.3 -182.55,-22.89 -349.15,-14.13 -499.83,26.3 -57.83,15.52 -113.32,35.69 -166.45,60.53 -429.22,200.67 -505.49,545.05 -667.5,949.48 -170.58,425.8 -364.06,925.87 -580.45,1500.21 -213.36,546.82 -409.54,948.18 -494.54,1038.65 23.33,39.42 56.02,-12.56 79.27,20.78z"/>
     </g>
    </g>
    <path class="fil4" d="M3037.03 4300.43c-213.36,546.82 -362.54,865.46 -447.54,955.92 274.8,464.27 543.29,507.17 805.46,128.73 206.81,-298.57 453.13,-1078.62 603.48,-1451.59 335,-830.99 596.88,-1444.6 785.64,-1840.81 64.18,-134.73 119.91,-244.32 167.19,-328.77 -252.61,-31.68 -474.71,-2.73 -666.28,86.83 -429.22,200.67 -505.49,545.05 -667.5,949.48 -170.58,425.8 -364.06,925.87 -580.45,1500.21z"/>
    <path class="fil5" d="M3982.48 4356.08c-7.35,555.6 159.33,970.65 487.53,1202.76 407.81,288.4 907.63,413.17 1376.07,239.83 252.49,-93.43 467.45,-256.06 624.64,-463.33 -509.26,576.77 -1250.06,377.87 -1545.38,-373.74 -89.33,-227.34 -149.85,-498.58 -152.92,-811.4l178.83 -2386.29c-253.89,406.68 -617.82,1338.6 -952.83,2169.59 -6.89,37.32 -15.45,385.03 -15.94,422.58z"/>
    <path class="fil6" style="mask:url(#id3)" d="M4393.29 2974.36c-6.29,320.15 -7.83,777.53 2.31,1117.67 5.66,189.86 18.21,367.86 41.93,513.23 3.91,23.94 8.55,47.94 13.9,71.92 98.27,440.48 436.25,880.19 872.27,1020.16 311.02,99.84 619.97,27.03 891.05,-143.57 -647.96,386.93 -1446.46,-222.29 -1442.32,-1403.59l-40.68 -2057.51c-93.1,195.41 -151.65,443.7 -280.32,744.87 -18.99,44.45 -38.37,90.05 -58.13,136.81z"/>
    <path class="fil3" style="mask:url(#id5)" d="M4395.6 4092.03c-10.14,-340.14 -8.59,-797.52 -2.31,-1117.67 -17.09,40.43 -34.47,81.72 -52.14,123.87 -5.02,365.26 -2.11,734.38 -1.11,991.05 0.74,189.67 8.29,362.03 34.05,518.84 16.18,98.49 42.42,193.8 77.33,284.61 292.65,761.29 1194.94,1207.19 1894.68,568.62 -42.34,35.79 -86.26,66.54 -131.36,92.43 -271.08,170.6 -580.02,243.41 -891.05,143.57 -436.02,-139.97 -774.01,-579.68 -872.27,-1020.16 -5.35,-23.99 -9.99,-47.98 -13.9,-71.92 -23.72,-145.37 -36.27,-323.37 -41.93,-513.23z"/>
    <path class="fil0" style="mask:url(#id7)" d="M3654.91 4743.29c-244.48,631.47 -487.36,967.84 -871.71,771.56 207.6,202.52 411.51,159.27 611.74,-129.76 206.81,-298.57 453.13,-1078.62 603.48,-1451.59 124.31,-308.35 238.55,-586.78 342.72,-835.27 17.67,-42.15 35.05,-83.44 52.14,-123.87 19.76,-46.75 39.14,-92.36 58.13,-136.81 128.67,-301.17 239.55,-549.46 332.64,-744.87 64.18,-134.73 119.91,-244.32 167.19,-328.77 -180.72,295.61 -346.06,625.14 -499.83,968.15 -300.21,669.69 -556.3,1390.78 -796.51,2011.23z"/>
    <path class="fil7" d="M2589.49 5256.35c1.28,-1.36 2.58,-2.78 3.89,-4.25l0.35 -0.4c1.25,-1.4 2.51,-2.85 3.78,-4.35l0.26 -0.3c1.32,-1.55 2.65,-3.15 3.99,-4.81l0.15 -0.18c1.34,-1.65 2.7,-3.35 4.07,-5.1l0.2 -0.25 0.2 -0.25c1.33,-1.7 2.67,-3.46 4.03,-5.25l0.38 -0.51c1.36,-1.8 2.72,-3.65 4.1,-5.54l0.36 -0.49c1.44,-1.98 2.9,-4.01 4.37,-6.09l0.07 -0.09 0.15 -0.21c1.46,-2.07 2.94,-4.2 4.43,-6.38l0.29 -0.42c1.44,-2.11 2.9,-4.26 4.37,-6.46l0.49 -0.74c1.41,-2.13 2.84,-4.3 4.28,-6.51l0.55 -0.84c1.56,-2.4 3.12,-4.84 4.7,-7.34l0.06 -0.1c1.59,-2.52 3.21,-5.09 4.83,-7.71l0.54 -0.87c1.54,-2.49 3.1,-5.03 4.66,-7.61l0.36 -0.59c1.58,-2.61 3.18,-5.28 4.79,-7.98l0.3 -0.5 0.34 -0.57c1.56,-2.62 3.12,-5.28 4.7,-7.99l0.31 -0.53 0.16 -0.27c1.72,-2.95 3.45,-5.95 5.2,-9l0.17 -0.3c3.63,-6.35 7.32,-12.9 11.08,-19.69l0.11 -0.19c1.81,-3.28 3.64,-6.6 5.48,-9.98l0.4 -0.73c3.72,-6.82 7.49,-13.85 11.32,-21.09l0.23 -0.44c1.91,-3.61 3.83,-7.26 5.77,-10.97l0.15 -0.3c1.95,-3.74 3.91,-7.53 5.9,-11.37l0.46 -0.9c1.79,-3.48 3.6,-7 5.41,-10.57l0.96 -1.9 5.27 -10.43 0.57 -1.13 0.32 -0.64c4.02,-8.01 8.1,-16.21 12.23,-24.61l0.61 -1.23c2,-4.06 4,-8.16 6.03,-12.32l0.4 -0.82 0.68 -1.4c-341.12,-963.84 -583.31,-1886.92 -929.15,-2431.25 -213.2,-335.56 -575.67,-621.15 -881.77,-779.17 0.99,0.67 1.99,1.38 2.99,2.06 1.04,0.71 2.08,1.42 3.12,2.14 1.55,1.08 3.09,2.18 4.65,3.28l2.88 2.04c1.52,1.09 3.04,2.21 4.57,3.32l3.06 2.23c1.46,1.08 2.92,2.18 4.38,3.27 1.06,0.8 2.13,1.58 3.19,2.39l0.13 0.1c2.43,1.84 4.86,3.71 7.3,5.6l0.11 0.09 1.1 0.86c2.17,1.69 4.33,3.39 6.5,5.12l2.31 1.86c1.74,1.4 3.49,2.8 5.24,4.22l3.2 2.63c1.46,1.2 2.93,2.4 4.4,3.62l3.37 2.83 4.32 3.64 3.2 2.74 4.56 3.93 3.29 2.87 4.16 3.66 3.49 3.1 4.54 4.07 2.93 2.64 4.69 4.28 3.24 2.98 4.13 3.84 3.59 3.36 4.36 4.13 3.19 3.03 5.21 5.01 2.23 2.15c1.72,1.67 3.43,3.35 5.15,5.03l2.82 2.76 5.12 5.08 2.26 2.24 0.31 0.31c2.45,2.45 4.89,4.91 7.33,7.38l0.22 0.22c2.37,2.4 4.74,4.82 7.09,7.24l0.25 0.26 3.8 3.93 3.76 3.9 4.37 4.58 2.95 3.09 4.29 4.55 3.48 3.7 3.6 3.87 4 4.32 3.44 3.74 3.99 4.35 3.64 4.01 3.68 4.07 3.55 3.95 3.99 4.46 3.69 4.15 3.63 4.11 3.26 3.7 4.64 5.31 2.81 3.23 4.22 4.9 3.08 3.58 3.82 4.48 3.52 4.13 0.19 0.22c2.24,2.64 4.47,5.29 6.7,7.94l0.2 0.23 6.85 8.2 4.31 5.21 2.77 3.35 3.6 4.4 3.36 4.11 3.8 4.68 3.04 3.75 3.84 4.77 3.06 3.82 3.74 4.69 3.03 3.82 3.89 4.93 2.64 3.36 3.97 5.08 2.78 3.57 3.85 4.98 2.71 3.51 3.56 4.64 3.62 4.75 2.74 3.61 3.32 4.39 3.32 4.41 3.04 4.07 3.09 4.14 5.69 7.68 0.32 0.43c2.13,2.88 4.24,5.77 6.34,8.64l0.09 0.12c1.96,2.69 3.91,5.37 5.85,8.05l0.34 0.47 5.43 7.54 0.16 0.23 3.75 5.25 2.14 3.01 3.13 4.42 2.76 3.91 2.8 3.99 3.01 4.3 2.7 3.89 2.7 3.91 2.78 4.04 3.01 4.38 2.27 3.34 3.11 4.59 2.24 3.32 3 4.47 2.41 3.61 2.78 4.19 2.06 3.11 3.48 5.3 1.6 2.45 2.88 4.43 2.15 3.32 0.28 0.43 4.25 6.62 0.33 0.51c1.51,2.36 2.99,4.71 4.46,7.04 346.31,549.2 616.8,1549.39 1241.01,2988.63zm-1325.31 -3111.48c2.13,2.89 4.24,5.76 6.34,8.64"/>
    <path class="fil8" style="mask:url(#id9)" d="M2738.74 5004.86c-341.12,-963.84 -583.31,-1886.92 -929.15,-2431.25 -213.19,-335.55 -575.61,-621.09 -881.71,-779.11 -11.13,-7.56 -22.16,-14.52 -33.04,-20.79l20.7 -0.36c353.3,154.65 743.5,448.91 937.94,771.35 383.85,636.57 663.22,1699.65 915.63,2396.27l-0.4 0.86 -29.68 62.45 -0.01 0.03 -0.08 0.17 -0.07 0.14 -0.05 0.11 -0.07 0.14z"/>
    <path class="fil9" d="M4772.43 4150.2c0.58,1393.42 1069.11,1975.65 1698.3,1185.14 134.44,-177.29 226.63,-387.23 263.87,-614.46 -238.81,425.33 -739.28,629.93 -1207.66,493.71 -468.38,-136.22 -781.06,-577.32 -754.51,-1064.38z"/>
    <path class="fil10" style="mask:url(#id11)" d="M3982.48 4356.08c-7.35,555.6 159.33,970.65 487.53,1202.76 407.81,288.4 907.63,413.17 1376.07,239.83 252.49,-93.43 467.45,-256.06 624.64,-463.33 -509.26,576.77 -1250.06,377.87 -1545.38,-373.74 -89.33,-227.34 -149.85,-498.58 -152.92,-811.4l178.83 -2386.29c-238.86,371.2 -617.82,1338.6 -952.83,2169.59 -6.89,37.32 -15.45,385.03 -15.94,422.58z"/>
    <path class="fil10" style="mask:url(#id13)" d="M927.89 1794.48c0.04,0.03 0.08,0.06 0.12,0.08 840,433.72 1560.63,805.63 -0.12,-0.08zm1841.22 3146.49c73.83,-158.48 163.13,-371.99 267.91,-640.54 -414.82,-946.27 -601.7,-1703.27 -900.29,-2093.07 -348.26,-454.65 -683.71,-443.45 -1221.2,-434.01l0 0c-6.87,0.12 -13.77,0.24 -20.7,0.36 10.86,6.25 21.87,13.18 32.98,20.72 0.02,0.01 0.05,0.02 0.07,0.05 0.04,0.03 0.08,0.06 0.12,0.08 0.93,0.64 1.87,1.27 2.8,1.92 1.04,0.71 2.07,1.43 3.11,2.15 1.55,1.08 3.1,2.17 4.65,3.27 0.96,0.68 1.91,1.36 2.87,2.05 1.53,1.09 3.05,2.2 4.58,3.31 1.02,0.74 2.03,1.49 3.05,2.24 1.46,1.08 2.93,2.17 4.39,3.27 1.06,0.79 2.12,1.59 3.18,2.4 0.04,0.03 0.09,0.06 0.13,0.1 2.43,1.84 4.86,3.71 7.3,5.6 0.04,0.03 0.07,0.06 0.11,0.09 0.37,0.28 0.73,0.57 1.1,0.86 2.16,1.69 4.33,3.4 6.5,5.12 0.77,0.62 1.54,1.23 2.32,1.85 1.74,1.4 3.48,2.8 5.23,4.22 1.07,0.87 2.14,1.75 3.21,2.62 1.46,1.2 2.93,2.41 4.39,3.63 1.12,0.94 2.25,1.88 3.38,2.83 1.44,1.21 2.87,2.42 4.31,3.64 1.07,0.91 2.14,1.82 3.2,2.73 1.52,1.3 3.04,2.61 4.56,3.93 1.1,0.95 2.2,1.91 3.3,2.87 1.39,1.21 2.77,2.43 4.16,3.66 1.16,1.03 2.33,2.06 3.49,3.1 1.51,1.35 3.03,2.7 4.54,4.07 0.97,0.88 1.95,1.76 2.92,2.64 1.56,1.42 3.12,2.85 4.69,4.28 1.08,0.99 2.16,1.98 3.24,2.98 1.38,1.27 2.75,2.55 4.13,3.84 1.2,1.12 2.39,2.24 3.59,3.36 1.46,1.37 2.91,2.74 4.37,4.12 1.06,1.01 2.12,2.02 3.19,3.04 1.74,1.66 3.48,3.33 5.22,5.01 0.74,0.72 1.48,1.43 2.23,2.15 1.72,1.67 3.44,3.34 5.15,5.03 0.94,0.92 1.88,1.84 2.81,2.76 1.71,1.68 3.41,3.37 5.12,5.07 0.75,0.75 1.5,1.49 2.25,2.25 0.1,0.1 0.21,0.21 0.31,0.31 2.45,2.45 4.89,4.91 7.33,7.38 0.07,0.07 0.14,0.14 0.22,0.22 2.37,2.4 4.73,4.82 7.09,7.24 0.09,0.09 0.17,0.17 0.25,0.26 1.27,1.3 2.54,2.61 3.81,3.93 1.25,1.3 2.51,2.6 3.76,3.91 1.46,1.52 2.91,3.04 4.37,4.57 0.98,1.03 1.96,2.06 2.94,3.1 1.43,1.51 2.86,3.03 4.29,4.55 1.16,1.23 2.32,2.47 3.48,3.7 1.2,1.28 2.4,2.57 3.6,3.86 1.33,1.44 2.67,2.88 4,4.32 1.15,1.24 2.3,2.49 3.44,3.74 1.33,1.45 2.66,2.9 3.99,4.35 1.22,1.33 2.43,2.67 3.64,4.01 1.23,1.36 2.46,2.71 3.68,4.07 1.19,1.32 2.37,2.63 3.55,3.95 1.33,1.48 2.66,2.97 3.99,4.46 1.23,1.38 2.46,2.77 3.68,4.15 1.21,1.37 2.42,2.74 3.63,4.11 1.09,1.23 2.17,2.47 3.25,3.7 1.55,1.77 3.1,3.54 4.64,5.31 0.93,1.07 1.87,2.15 2.8,3.23 1.41,1.63 2.82,3.26 4.23,4.89 1.03,1.2 2.06,2.39 3.08,3.59 1.28,1.49 2.55,2.98 3.83,4.48 1.17,1.38 2.34,2.75 3.51,4.13 0.06,0.08 0.12,0.15 0.19,0.23 2.24,2.64 4.47,5.29 6.7,7.94 0.07,0.08 0.13,0.15 0.2,0.23 2.29,2.73 4.57,5.46 6.85,8.2 1.44,1.73 2.88,3.47 4.31,5.2 0.93,1.12 1.85,2.24 2.77,3.36 1.2,1.46 2.41,2.93 3.61,4.39 1.12,1.37 2.24,2.74 3.36,4.11 1.27,1.56 2.54,3.12 3.8,4.68 1.01,1.25 2.03,2.51 3.04,3.76 1.28,1.59 2.56,3.18 3.84,4.77 1.02,1.27 2.04,2.55 3.06,3.82 1.25,1.57 2.49,3.13 3.74,4.69 1.01,1.27 2.02,2.54 3.03,3.82 1.3,1.64 2.6,3.29 3.89,4.93 0.88,1.12 1.76,2.24 2.64,3.36 1.33,1.69 2.65,3.38 3.97,5.08 0.93,1.19 1.85,2.38 2.78,3.57 1.29,1.66 2.57,3.32 3.85,4.98 0.91,1.17 1.81,2.34 2.71,3.51 1.19,1.55 2.38,3.09 3.56,4.64 1.21,1.58 2.42,3.17 3.62,4.75 0.91,1.2 1.83,2.41 2.74,3.61 1.11,1.47 2.22,2.93 3.32,4.39 1.11,1.47 2.22,2.94 3.32,4.41 1.02,1.35 2.03,2.71 3.05,4.06 1.03,1.38 2.06,2.76 3.09,4.14 1.91,2.57 3.8,5.12 5.69,7.68 0.1,0.14 0.21,0.28 0.31,0.43 2.13,2.88 4.24,5.77 6.34,8.64 0.03,0.04 0.06,0.08 0.09,0.12 1.96,2.69 3.91,5.37 5.85,8.05l0.34 0.47c1.82,2.52 3.63,5.03 5.43,7.54 0.06,0.07 0.11,0.15 0.16,0.22 1.26,1.75 2.51,3.51 3.76,5.25 0.72,1 1.43,2.01 2.14,3.01 1.05,1.48 2.09,2.95 3.13,4.42 0.92,1.3 1.84,2.61 2.76,3.91 0.94,1.33 1.87,2.66 2.8,3.99 1.01,1.43 2.01,2.87 3,4.3 0.9,1.3 1.8,2.59 2.7,3.89 0.9,1.3 1.81,2.61 2.7,3.91 0.93,1.35 1.86,2.7 2.78,4.04 1.01,1.47 2.01,2.93 3.01,4.39 0.76,1.11 1.52,2.23 2.27,3.33 1.04,1.54 2.08,3.07 3.12,4.59 0.75,1.11 1.49,2.22 2.24,3.32 1.01,1.49 2.01,2.99 3.01,4.47 0.81,1.21 1.61,2.41 2.41,3.61 0.93,1.4 1.86,2.8 2.79,4.19 0.69,1.04 1.37,2.08 2.06,3.11 1.17,1.77 2.33,3.54 3.49,5.3 0.54,0.82 1.07,1.63 1.6,2.45 0.97,1.48 1.93,2.96 2.88,4.43 0.72,1.11 1.43,2.22 2.15,3.32 0.09,0.14 0.18,0.28 0.27,0.43 1.43,2.22 2.85,4.43 4.25,6.62 0.11,0.17 0.22,0.34 0.33,0.51 1.51,2.36 2.99,4.71 4.46,7.04 346.31,549.2 616.8,1549.39 1241.01,2988.63 1.28,-1.36 2.58,-2.78 3.89,-4.25l0.35 -0.4c1.25,-1.4 2.51,-2.85 3.78,-4.35l0.26 -0.3c1.32,-1.55 2.65,-3.15 3.99,-4.81l0.15 -0.18c1.34,-1.65 2.7,-3.35 4.07,-5.1l0.2 -0.25 0.2 -0.25c1.33,-1.7 2.67,-3.46 4.03,-5.25l0.38 -0.51c1.36,-1.8 2.72,-3.65 4.1,-5.54l0.36 -0.49c1.44,-1.98 2.9,-4.01 4.37,-6.09l0.07 -0.09c0.05,-0.07 0.1,-0.14 0.15,-0.21 1.46,-2.07 2.94,-4.2 4.43,-6.38l0.29 -0.42c1.44,-2.11 2.9,-4.26 4.37,-6.46l0.49 -0.74c1.41,-2.13 2.84,-4.3 4.28,-6.51l0.55 -0.84c1.56,-2.4 3.12,-4.84 4.7,-7.34l0.06 -0.1c1.59,-2.52 3.21,-5.09 4.83,-7.71l0.54 -0.87c1.54,-2.49 3.1,-5.03 4.66,-7.61l0.36 -0.59c1.58,-2.61 3.18,-5.28 4.79,-7.98l0.3 -0.5c0.11,-0.19 0.22,-0.38 0.34,-0.57 1.56,-2.62 3.12,-5.28 4.7,-7.99 0.1,-0.18 0.21,-0.35 0.31,-0.53l0.16 -0.27c1.72,-2.95 3.45,-5.95 5.2,-9l0.17 -0.3c3.63,-6.35 7.32,-12.9 11.08,-19.69l0.11 -0.19c1.81,-3.28 3.64,-6.61 5.48,-9.98l0.4 -0.73c3.72,-6.82 7.49,-13.85 11.32,-21.09l0.23 -0.44c1.91,-3.61 3.83,-7.26 5.77,-10.97 0.05,-0.1 0.1,-0.2 0.15,-0.3 1.95,-3.74 3.91,-7.53 5.9,-11.37l0.46 -0.9c1.79,-3.48 3.6,-7 5.41,-10.57l0.96 -1.9 5.27 -10.43 0.57 -1.13c0.1,-0.21 0.21,-0.43 0.32,-0.64 4.02,-8.01 8.1,-16.21 12.23,-24.61l0.61 -1.23c2,-4.06 4,-8.16 6.03,-12.32l0.4 -0.82 0.68 -1.4 0.07 -0.14 0.05 -0.11 0.07 -0.14 0.1 -0.2 29.68 -62.45 0.41 -0.85z"/>
   </g>
  </g>
 </g>
</svg>
