<?xml version="1.0" encoding="UTF-8"?>
<!DOCTYPE svg PUBLIC "-//W3C//DTD SVG 1.1//EN" "http://www.w3.org/Graphics/SVG/1.1/DTD/svg11.dtd">
<!-- Creator: CorelDRAW -->
<svg xmlns="http://www.w3.org/2000/svg" xml:space="preserve" width="211.377mm" height="149.362mm" version="1.1" style="shape-rendering:geometricPrecision; text-rendering:geometricPrecision; image-rendering:optimizeQuality; fill-rule:evenodd; clip-rule:evenodd"
viewBox="0 0 3404.42 2405.61"
 xmlns:xlink="http://www.w3.org/1999/xlink"
 xmlns:xodm="http://www.corel.com/coreldraw/odm/2003">
 <defs>
  <style type="text/css">
   <![CDATA[
    .fil3 {fill:none}
    .fil6 {fill:#FEFEFE}
    .fil2 {fill:#FEFEFE}
    .fil9 {fill:#FF54FF}
    .fil8 {fill:url(#id15)}
    .fil5 {fill:url(#id16)}
    .fil4 {fill:url(#id17)}
    .fil1 {fill:url(#id18)}
    .fil0 {fill:url(#id19)}
    .fil7 {fill:url(#id20)}
   ]]>
  </style>
    <clipPath id="id0">
     <path d="M1248.84 1485.96c-124.39,318.78 -211.35,504.54 -260.9,557.28 160.2,270.65 316.72,295.67 469.56,75.05 120.57,-174.06 264.16,-628.81 351.81,-846.24 195.3,-484.45 347.97,-842.16 458.01,-1073.15 37.42,-78.54 69.91,-142.43 97.46,-191.67 -147.27,-18.47 -276.74,-1.59 -388.42,50.62 -250.22,116.99 -294.68,317.75 -389.13,553.52 -99.44,248.23 -212.24,539.76 -338.38,874.58z"/>
    </clipPath>
      <mask id="id1">
  <linearGradient id="id2" gradientUnits="userSpaceOnUse" x1="1050.06" y1="1724.97" x2="2275.26" y2="378.61">
   <stop offset="0" style="stop-opacity:0.14902; stop-color:white"/>
   <stop offset="1" style="stop-opacity:0.0509804; stop-color:white"/>
  </linearGradient>
       <rect style="fill:url(#id2)" x="958.92" y="-1.61" width="1407.47" height="2106.8"/>
      </mask>
    <mask id="id3">
  <linearGradient id="id4" gradientUnits="userSpaceOnUse" x1="2036.58" y1="1262.82" x2="3101.37" y2="1262.82">
   <stop offset="0" style="stop-opacity:0; stop-color:white"/>
   <stop offset="1" style="stop-opacity:1; stop-color:white"/>
  </linearGradient>
     <rect style="fill:url(#id4)" x="2036.58" y="198.9" width="1064.78" height="2127.84"/>
    </mask>
    <mask id="id5">
  <linearGradient id="id6" gradientUnits="userSpaceOnUse" x1="2209.24" y1="867.61" x2="2976.14" y2="2186.17">
   <stop offset="0" style="stop-opacity:0.101961; stop-color:white"/>
   <stop offset="1" style="stop-opacity:0.431373; stop-color:white"/>
  </linearGradient>
     <rect style="fill:url(#id6)" x="2007.44" y="712.9" width="1170.51" height="1627.99"/>
    </mask>
    <mask id="id7">
  <linearGradient id="id8" gradientUnits="userSpaceOnUse" x1="1099.42" y1="1176.43" x2="2366.22" y2="1097.7">
   <stop offset="0" style="stop-opacity:0; stop-color:white"/>
   <stop offset="1" style="stop-opacity:0.368627; stop-color:white"/>
  </linearGradient>
     <rect style="fill:url(#id8)" x="1100.87" y="7.24" width="1263.92" height="2259.66"/>
    </mask>
    <mask id="id9">
  <linearGradient id="id10" gradientUnits="userSpaceOnUse" x1="1026.23" y1="1556.37" x2="-70.9" y2="301.39">
   <stop offset="0" style="stop-opacity:0; stop-color:white"/>
   <stop offset="1" style="stop-opacity:0.509804; stop-color:white"/>
  </linearGradient>
     <rect style="fill:url(#id10)" y="12.74" width="1092.65" height="1883.88"/>
    </mask>
    <mask id="id11">
  <linearGradient id="id12" gradientUnits="userSpaceOnUse" x1="3191.74" y1="1987" x2="1858.73" y2="425.85">
   <stop offset="0" style="stop-opacity:0; stop-color:white"/>
   <stop offset="1" style="stop-opacity:0.458824; stop-color:white"/>
  </linearGradient>
     <rect style="fill:url(#id12)" x="1799.88" y="7.24" width="1450.72" height="2398.37"/>
    </mask>
    <mask id="id13">
  <linearGradient id="id14" gradientUnits="userSpaceOnUse" x1="-18.89" y1="672.04" x2="1267.73" y2="1382.31">
   <stop offset="0" style="stop-opacity:0; stop-color:white"/>
   <stop offset="1" style="stop-opacity:0.458824; stop-color:white"/>
  </linearGradient>
     <rect style="fill:url(#id14)" y="11.11" width="1248.84" height="2032.13"/>
    </mask>
  <linearGradient id="id15" gradientUnits="userSpaceOnUse" x1="2259.61" y1="1847.65" x2="3404.42" y2="1847.65">
   <stop offset="0" style="stop-opacity:1; stop-color:#1C21FF"/>
   <stop offset="1" style="stop-opacity:1; stop-color:#9EFFFF"/>
  </linearGradient>
  <linearGradient id="id16" gradientUnits="userSpaceOnUse" x1="2036.58" y1="1262.82" x2="3101.37" y2="1262.82">
   <stop offset="0" style="stop-opacity:1; stop-color:#C8FFFF"/>
   <stop offset="1" style="stop-opacity:1; stop-color:white"/>
  </linearGradient>
  <linearGradient id="id17" gradientUnits="userSpaceOnUse" x1="1795.85" y1="601.84" x2="3254.62" y2="1811.01">
   <stop offset="0" style="stop-opacity:1; stop-color:#1C21FF"/>
   <stop offset="1" style="stop-opacity:1; stop-color:#54FFFF"/>
  </linearGradient>
  <linearGradient id="id18" gradientUnits="userSpaceOnUse" x1="1315.02" y1="2165.75" x2="2037.7" y2="101.15">
   <stop offset="0" style="stop-opacity:1; stop-color:#6B14FF"/>
   <stop offset="0.490196" style="stop-opacity:1; stop-color:#79FFFF"/>
   <stop offset="1" style="stop-opacity:1; stop-color:#E6FFFF"/>
  </linearGradient>
  <linearGradient id="id19" gradientUnits="userSpaceOnUse" x1="1169.51" y1="1729.99" x2="79.33" y2="324.36">
   <stop offset="0" style="stop-opacity:1; stop-color:#1C21FF"/>
   <stop offset="1" style="stop-opacity:1; stop-color:#E6FFFF"/>
  </linearGradient>
  <linearGradient id="id20" gradientUnits="userSpaceOnUse" xlink:href="#id17" x1="1169.51" y1="1729.99" x2="79.33" y2="324.36">
  </linearGradient>
 </defs>
 <g id="Camada_x0020_1">
  <metadata id="CorelCorpID_0Corel-Layer"/>
  <g id="_2634353415760">
   <path class="fil0" d="M987.94 2043.24c49.55,-52.74 136.52,-238.5 260.9,-557.28 -241.83,-551.65 -350.78,-992.96 -524.85,-1220.2 -205.62,-268.43 -403.58,-258.31 -723.99,-252.8 93.73,53.94 205.71,194.83 264.46,287.99 201.89,320.17 359.58,903.25 723.48,1742.29z"/>
   <path class="fil1" d="M1248.84 1485.96c-124.39,318.78 -211.35,504.54 -260.9,557.28 160.2,270.65 316.72,295.67 469.56,75.05 120.57,-174.06 264.16,-628.81 351.81,-846.24 195.3,-484.45 347.97,-842.16 458.01,-1073.15 37.42,-78.54 69.91,-142.43 97.46,-191.67 -147.27,-18.47 -276.74,-1.59 -388.42,50.62 -250.22,116.99 -294.68,317.75 -389.13,553.52 -99.44,248.23 -212.24,539.76 -338.38,874.58z"/>
   <g style="clip-path:url(#id0)">
    <g>
     <path id="_1" class="fil2" style="mask:url(#id1)" d="M1006.74 2103.58c54.21,-82.84 137.94,-262.98 251.84,-544.87 136.89,-349.93 290.78,-789.71 398.18,-1049.14 102.01,-246.41 134.75,-343.7 388.73,-465.95 97.55,-46.96 211.43,-40.55 319.19,-36.2 0.03,-0.06 0.07,-0.12 0.1,-0.18 -106.42,-13.35 -203.55,-8.23 -291.39,15.33 -33.71,9.05 -66.06,20.81 -97.04,35.29 -250.22,116.99 -294.68,317.75 -389.13,553.52 -99.44,248.23 -212.24,539.76 -338.38,874.58 -124.39,318.78 -238.75,552.77 -288.3,605.5 13.6,22.98 32.66,-7.32 46.21,12.12z"/>
    </g>
   </g>
   <path class="fil3" d="M1248.84 1485.96c-124.39,318.78 -211.35,504.54 -260.9,557.28 160.2,270.65 316.72,295.67 469.56,75.05 120.57,-174.06 264.16,-628.81 351.81,-846.24 195.3,-484.45 347.97,-842.16 458.01,-1073.15 37.42,-78.54 69.91,-142.43 97.46,-191.67 -147.27,-18.47 -276.74,-1.59 -388.42,50.62 -250.22,116.99 -294.68,317.75 -389.13,553.52 -99.44,248.23 -212.24,539.76 -338.38,874.58z"/>
   <path class="fil4" d="M1800.01 1518.4c-4.28,323.9 92.88,565.87 284.22,701.18 237.74,168.13 529.13,240.87 802.22,139.82 147.19,-54.47 272.51,-149.28 364.15,-270.11 -296.88,336.24 -728.75,220.29 -900.92,-217.88 -52.08,-132.53 -87.36,-290.66 -89.15,-473.02l104.25 -1391.14c-148.01,237.08 -360.17,780.37 -555.47,1264.81 -4.02,21.76 -9,224.46 -9.29,246.35z"/>
   <path class="fil5" style="mask:url(#id3)" d="M2039.51 712.9c-3.67,186.64 -4.57,453.28 1.34,651.57 3.3,110.68 10.62,214.45 24.44,299.2 2.28,13.96 4.98,27.95 8.1,41.93 57.29,256.79 254.32,513.13 508.51,594.73 181.32,58.21 361.43,15.76 519.46,-83.7 -377.74,225.57 -843.25,-129.59 -840.84,-818.25l-23.72 -1199.48c-54.27,113.92 -88.41,258.67 -163.42,434.24 -11.07,25.91 -22.37,52.5 -33.89,79.75z"/>
   <path class="fil2" style="mask:url(#id5)" d="M2040.85 1364.47c-5.91,-198.29 -5.01,-464.93 -1.34,-651.57 -9.96,23.57 -20.1,47.64 -30.4,72.21 -2.93,212.94 -1.23,428.12 -0.64,577.76 0.43,110.58 4.83,211.05 19.85,302.47 9.43,57.42 24.73,112.98 45.08,165.92 170.61,443.81 696.62,703.76 1104.55,331.49 -24.68,20.87 -50.29,38.79 -76.58,53.89 -158.03,99.45 -338.14,141.9 -519.46,83.7 -254.19,-81.6 -451.23,-337.94 -508.51,-594.73 -3.12,-13.98 -5.83,-27.97 -8.1,-41.93 -13.83,-84.75 -21.14,-188.52 -24.44,-299.2z"/>
   <path class="fil6" style="mask:url(#id7)" d="M1609.05 1744.14c-142.52,368.13 -284.12,564.23 -508.18,449.8 121.02,118.07 239.9,92.85 356.63,-75.65 120.57,-174.06 264.16,-628.81 351.81,-846.24 72.47,-179.76 139.07,-342.08 199.8,-486.94 10.3,-24.57 20.44,-48.64 30.4,-72.21 11.52,-27.26 22.82,-53.84 33.89,-79.75 75.01,-175.57 139.65,-320.32 193.92,-434.24 37.42,-78.54 69.91,-142.43 97.46,-191.67 -105.35,172.33 -201.74,364.44 -291.39,564.41 -175.02,390.41 -324.31,810.79 -464.35,1172.49z"/>
   <path class="fil7" d="M987.94 2043.24c0.75,-0.8 1.51,-1.62 2.27,-2.48l0.2 -0.23c0.73,-0.82 1.46,-1.66 2.2,-2.54l0.15 -0.18c0.77,-0.91 1.54,-1.84 2.33,-2.8l0.09 -0.1c0.78,-0.96 1.57,-1.95 2.37,-2.97l0.11 -0.14 0.11 -0.15c0.78,-0.99 1.56,-2.01 2.35,-3.06l0.22 -0.29c0.79,-1.05 1.59,-2.13 2.39,-3.23l0.21 -0.29c0.84,-1.15 1.69,-2.34 2.54,-3.55l0.04 -0.05 0.09 -0.12c0.85,-1.21 1.71,-2.45 2.58,-3.72l0.17 -0.25c0.84,-1.23 1.69,-2.49 2.55,-3.77l0.29 -0.43c0.82,-1.24 1.66,-2.5 2.5,-3.79l0.32 -0.49c0.91,-1.4 1.82,-2.82 2.74,-4.28l0.04 -0.06c0.93,-1.47 1.87,-2.97 2.82,-4.49l0.31 -0.51c0.9,-1.45 1.81,-2.93 2.72,-4.44l0.21 -0.34c0.92,-1.52 1.86,-3.08 2.79,-4.65l0.17 -0.29 0.2 -0.33c0.91,-1.53 1.82,-3.08 2.74,-4.66l0.18 -0.31 0.09 -0.16c1,-1.72 2.01,-3.47 3.03,-5.25l0.1 -0.18c2.12,-3.7 4.27,-7.52 6.46,-11.48l0.06 -0.11c1.06,-1.91 2.12,-3.85 3.2,-5.82l0.23 -0.43c2.17,-3.98 4.36,-8.07 6.6,-12.29l0.14 -0.26c1.11,-2.1 2.23,-4.23 3.36,-6.39l0.09 -0.17c1.14,-2.18 2.28,-4.39 3.44,-6.63l0.27 -0.52c1.05,-2.03 2.1,-4.08 3.16,-6.16l0.56 -1.1 3.07 -6.08 0.33 -0.66 0.19 -0.37c2.34,-4.67 4.72,-9.45 7.13,-14.35l0.35 -0.72c1.16,-2.37 2.33,-4.76 3.51,-7.18l0.23 -0.48 0.39 -0.82c-198.87,-561.89 -340.06,-1100.02 -541.67,-1417.35 -124.29,-195.63 -335.6,-362.12 -514.05,-454.24 0.58,0.39 1.16,0.8 1.74,1.2 0.61,0.42 1.21,0.83 1.82,1.25 0.9,0.63 1.8,1.27 2.71,1.91l1.68 1.19c0.89,0.64 1.77,1.29 2.66,1.94l1.78 1.3c0.85,0.63 1.7,1.27 2.56,1.91 0.62,0.46 1.24,0.92 1.86,1.39l0.07 0.06c1.42,1.07 2.83,2.16 4.25,3.26l0.06 0.05 0.64 0.5c1.26,0.98 2.53,1.98 3.79,2.98l1.35 1.08c1.02,0.81 2.03,1.63 3.05,2.46l1.87 1.53c0.85,0.7 1.71,1.4 2.56,2.11l1.97 1.65 2.52 2.12 1.87 1.6 2.66 2.29 1.92 1.68 2.43 2.13 2.03 1.81 2.64 2.37 1.71 1.54 2.73 2.49 1.89 1.74 2.41 2.24 2.09 1.96 2.54 2.41 1.86 1.77 3.04 2.92 1.3 1.25c1,0.97 2,1.95 3,2.93l1.64 1.61 2.98 2.96 1.32 1.31 0.18 0.18c1.43,1.43 2.85,2.86 4.27,4.3l0.13 0.13c1.38,1.4 2.76,2.81 4.14,4.22l0.15 0.15 2.22 2.29 2.19 2.28 2.54 2.67 1.72 1.8 2.5 2.65 2.03 2.16 2.1 2.25 2.33 2.52 2.01 2.18 2.32 2.54 2.12 2.34 2.15 2.37 2.07 2.3 2.33 2.6 2.15 2.42 2.11 2.4 1.9 2.16 2.7 3.1 1.64 1.88 2.46 2.85 1.8 2.09 2.23 2.61 2.05 2.41 0.11 0.13c1.31,1.54 2.61,3.08 3.9,4.63l0.11 0.14 3.99 4.78 2.51 3.04 1.62 1.96 2.1 2.56 1.96 2.39 2.21 2.73 1.77 2.19 2.24 2.78 1.78 2.23 2.18 2.74 1.76 2.22 2.27 2.87 1.54 1.96 2.31 2.96 1.62 2.08 2.25 2.9 1.58 2.05 2.07 2.7 2.11 2.77 1.6 2.1 1.94 2.56 1.94 2.57 1.77 2.37 1.8 2.41 3.32 4.48 0.19 0.25c1.24,1.68 2.47,3.36 3.7,5.03l0.05 0.07c1.15,1.57 2.28,3.13 3.41,4.69l0.2 0.27 3.16 4.39 0.09 0.13 2.19 3.06 1.25 1.75 1.82 2.58 1.61 2.28 1.63 2.33 1.75 2.5 1.57 2.27 1.58 2.28 1.62 2.35 1.75 2.56 1.33 1.95 1.82 2.68 1.31 1.93 1.75 2.61 1.41 2.1 1.62 2.44 1.2 1.81 2.03 3.09 0.93 1.43 1.68 2.58 1.25 1.93 0.16 0.25 2.48 3.86 0.19 0.3c0.88,1.38 1.75,2.75 2.6,4.1 201.89,320.17 359.58,903.25 723.48,1742.29zm-772.62 -1813.91c1.24,1.68 2.47,3.36 3.7,5.03"/>
   <path class="fil6" style="mask:url(#id9)" d="M1074.94 1896.62c-198.87,-561.89 -340.06,-1100.02 -541.67,-1417.35 -124.28,-195.62 -335.57,-362.08 -514.01,-454.2 -6.49,-4.4 -12.92,-8.47 -19.26,-12.12l12.07 -0.21c205.97,90.16 433.44,261.7 546.79,449.68 223.78,371.1 386.64,990.85 533.79,1396.96l-0.23 0.5 -17.3 36.41 -0.01 0.02 -0.05 0.1 -0.04 0.08 -0.03 0.06 -0.04 0.08z"/>
   <path class="fil8" d="M2260.53 1398.38c0.34,812.33 623.26,1151.75 990.06,690.9 78.38,-103.35 132.12,-225.75 153.83,-358.22 -139.22,247.96 -430.98,367.23 -704.03,287.82 -273.05,-79.41 -455.34,-336.56 -439.86,-620.51z"/>
   <path class="fil9" style="mask:url(#id11)" d="M1800.01 1518.4c-4.28,323.9 92.88,565.87 284.22,701.18 237.74,168.13 529.13,240.87 802.22,139.82 147.19,-54.47 272.51,-149.28 364.15,-270.11 -296.88,336.24 -728.75,220.29 -900.92,-217.88 -52.08,-132.53 -87.36,-290.66 -89.15,-473.02l104.25 -1391.14c-139.25,216.4 -360.17,780.37 -555.47,1264.81 -4.02,21.76 -9,224.46 -9.29,246.35z"/>
   <path class="fil9" style="mask:url(#id13)" d="M19.27 25.06c0.02,0.02 0.05,0.03 0.07,0.05 489.7,252.85 909.8,469.66 -0.07,-0.05zm1073.39 1834.32c43.04,-92.39 95.1,-216.86 156.19,-373.42 -241.83,-551.65 -350.78,-992.96 -524.85,-1220.2 -203.02,-265.05 -398.59,-258.52 -711.93,-253.02l0 0c-4,0.07 -8.03,0.14 -12.07,0.21 6.33,3.64 12.75,7.68 19.22,12.08 0.01,0.01 0.03,0.01 0.04,0.03 0.02,0.02 0.05,0.03 0.07,0.05 0.54,0.37 1.09,0.74 1.63,1.12 0.6,0.42 1.21,0.83 1.81,1.25 0.9,0.63 1.81,1.26 2.71,1.91 0.56,0.39 1.11,0.79 1.67,1.19 0.89,0.64 1.78,1.28 2.67,1.93 0.59,0.43 1.19,0.87 1.78,1.31 0.85,0.63 1.71,1.26 2.56,1.9 0.62,0.46 1.24,0.93 1.86,1.4 0.03,0.02 0.05,0.04 0.07,0.06 1.42,1.07 2.83,2.16 4.25,3.26 0.02,0.02 0.04,0.03 0.06,0.05 0.21,0.17 0.43,0.33 0.64,0.5 1.26,0.98 2.52,1.98 3.79,2.98 0.45,0.36 0.9,0.72 1.35,1.08 1.01,0.81 2.03,1.63 3.05,2.46 0.62,0.51 1.25,1.02 1.87,1.53 0.85,0.7 1.71,1.41 2.56,2.12 0.66,0.55 1.31,1.1 1.97,1.65 0.84,0.7 1.68,1.41 2.51,2.12 0.62,0.53 1.24,1.06 1.87,1.59 0.89,0.76 1.77,1.52 2.66,2.29 0.64,0.55 1.28,1.11 1.92,1.67 0.81,0.71 1.62,1.42 2.42,2.13 0.68,0.6 1.36,1.2 2.03,1.81 0.88,0.79 1.76,1.58 2.65,2.37 0.57,0.51 1.14,1.03 1.7,1.54 0.91,0.83 1.82,1.66 2.73,2.49 0.63,0.58 1.26,1.16 1.89,1.74 0.8,0.74 1.61,1.49 2.41,2.24 0.7,0.65 1.39,1.3 2.09,1.96 0.85,0.8 1.7,1.6 2.55,2.4 0.62,0.59 1.24,1.18 1.86,1.77 1.01,0.97 2.03,1.94 3.04,2.92 0.43,0.42 0.86,0.84 1.3,1.25 1,0.97 2,1.95 3,2.93 0.55,0.54 1.09,1.07 1.64,1.61 1,0.98 1.99,1.97 2.98,2.96 0.44,0.43 0.87,0.87 1.31,1.31 0.06,0.06 0.12,0.12 0.18,0.18 1.43,1.43 2.85,2.86 4.27,4.3 0.04,0.04 0.08,0.08 0.13,0.13 1.38,1.4 2.76,2.81 4.14,4.22 0.05,0.05 0.1,0.1 0.15,0.15 0.74,0.76 1.48,1.52 2.22,2.29 0.73,0.76 1.46,1.52 2.19,2.28 0.85,0.89 1.7,1.77 2.55,2.67 0.57,0.6 1.14,1.2 1.72,1.81 0.84,0.88 1.67,1.77 2.5,2.65 0.68,0.72 1.35,1.44 2.03,2.16 0.7,0.75 1.4,1.5 2.1,2.25 0.78,0.84 1.56,1.68 2.33,2.52 0.67,0.72 1.34,1.45 2.01,2.18 0.78,0.84 1.55,1.69 2.32,2.54 0.71,0.78 1.42,1.56 2.12,2.34 0.72,0.79 1.43,1.58 2.15,2.37 0.69,0.77 1.38,1.53 2.07,2.3 0.78,0.86 1.55,1.73 2.33,2.6 0.72,0.81 1.43,1.61 2.15,2.42 0.71,0.8 1.41,1.6 2.12,2.39 0.63,0.72 1.27,1.44 1.9,2.16 0.9,1.03 1.81,2.06 2.71,3.1 0.54,0.63 1.09,1.25 1.63,1.88 0.82,0.95 1.64,1.9 2.46,2.85 0.6,0.7 1.2,1.39 1.8,2.09 0.74,0.87 1.49,1.74 2.23,2.61 0.68,0.8 1.37,1.6 2.05,2.41 0.04,0.05 0.07,0.09 0.11,0.13 1.31,1.54 2.61,3.08 3.9,4.63 0.04,0.05 0.08,0.09 0.11,0.14 1.34,1.59 2.67,3.18 3.99,4.78 0.84,1.01 1.68,2.02 2.51,3.03 0.54,0.65 1.08,1.31 1.61,1.96 0.7,0.85 1.4,1.71 2.1,2.56 0.65,0.8 1.31,1.6 1.96,2.4 0.74,0.91 1.48,1.82 2.22,2.73 0.59,0.73 1.18,1.46 1.77,2.19 0.75,0.93 1.49,1.86 2.24,2.78 0.6,0.74 1.19,1.48 1.78,2.23 0.73,0.91 1.45,1.82 2.18,2.74 0.59,0.74 1.18,1.48 1.76,2.22 0.76,0.96 1.52,1.92 2.27,2.87 0.51,0.65 1.03,1.3 1.54,1.96 0.77,0.99 1.54,1.97 2.31,2.96 0.54,0.69 1.08,1.39 1.62,2.08 0.75,0.97 1.5,1.93 2.25,2.9 0.53,0.68 1.05,1.37 1.58,2.05 0.69,0.9 1.39,1.8 2.07,2.7 0.71,0.92 1.41,1.85 2.11,2.77 0.53,0.7 1.07,1.4 1.6,2.1 0.65,0.86 1.29,1.71 1.94,2.56 0.65,0.86 1.29,1.71 1.93,2.57 0.59,0.79 1.19,1.58 1.78,2.37 0.6,0.81 1.2,1.61 1.8,2.41 1.11,1.5 2.22,2.99 3.32,4.48 0.06,0.08 0.12,0.17 0.18,0.25 1.24,1.68 2.47,3.36 3.7,5.03 0.02,0.02 0.03,0.05 0.05,0.07 1.15,1.57 2.28,3.13 3.41,4.69l0.2 0.27c1.06,1.47 2.12,2.93 3.16,4.39 0.03,0.04 0.06,0.09 0.1,0.13 0.73,1.02 1.46,2.04 2.19,3.06 0.42,0.58 0.83,1.17 1.25,1.75 0.61,0.86 1.22,1.72 1.82,2.58 0.54,0.76 1.07,1.52 1.61,2.28 0.55,0.78 1.09,1.55 1.63,2.33 0.59,0.84 1.17,1.67 1.75,2.5 0.53,0.76 1.05,1.51 1.58,2.27 0.53,0.76 1.05,1.52 1.58,2.28 0.54,0.79 1.08,1.57 1.62,2.35 0.59,0.86 1.17,1.71 1.75,2.56 0.44,0.65 0.89,1.3 1.33,1.94 0.61,0.9 1.21,1.79 1.82,2.68 0.44,0.65 0.87,1.29 1.3,1.93 0.59,0.87 1.17,1.74 1.75,2.61 0.47,0.7 0.94,1.4 1.4,2.1 0.54,0.82 1.09,1.63 1.63,2.44 0.4,0.61 0.8,1.21 1.2,1.82 0.68,1.03 1.36,2.06 2.03,3.09 0.31,0.48 0.62,0.95 0.93,1.43 0.56,0.86 1.12,1.72 1.68,2.58 0.42,0.65 0.84,1.29 1.25,1.94 0.05,0.08 0.11,0.16 0.16,0.25 0.84,1.29 1.66,2.58 2.48,3.86 0.06,0.1 0.13,0.2 0.19,0.3 0.88,1.38 1.75,2.75 2.6,4.1 201.89,320.17 359.58,903.25 723.48,1742.29 0.75,-0.8 1.51,-1.62 2.27,-2.48l0.2 -0.23c0.73,-0.82 1.46,-1.66 2.2,-2.54l0.15 -0.18c0.77,-0.91 1.54,-1.84 2.33,-2.8l0.09 -0.1c0.78,-0.96 1.57,-1.95 2.37,-2.97l0.11 -0.14 0.11 -0.15c0.78,-0.99 1.56,-2.01 2.35,-3.06l0.22 -0.29c0.79,-1.05 1.59,-2.13 2.39,-3.23l0.21 -0.29c0.84,-1.15 1.69,-2.34 2.54,-3.55l0.04 -0.05c0.03,-0.04 0.06,-0.08 0.09,-0.12 0.85,-1.21 1.71,-2.45 2.58,-3.72l0.17 -0.25c0.84,-1.23 1.69,-2.49 2.55,-3.77l0.29 -0.43c0.82,-1.24 1.66,-2.5 2.5,-3.79l0.32 -0.49c0.91,-1.4 1.82,-2.82 2.74,-4.28l0.04 -0.06c0.93,-1.47 1.87,-2.97 2.82,-4.49l0.31 -0.51c0.9,-1.45 1.81,-2.93 2.72,-4.44l0.21 -0.34c0.92,-1.52 1.86,-3.08 2.79,-4.65l0.17 -0.29c0.06,-0.11 0.13,-0.22 0.2,-0.33 0.91,-1.53 1.82,-3.08 2.74,-4.66 0.06,-0.1 0.12,-0.21 0.18,-0.31l0.09 -0.16c1,-1.72 2.01,-3.47 3.03,-5.25l0.1 -0.18c2.12,-3.7 4.27,-7.52 6.46,-11.48l0.06 -0.11c1.06,-1.91 2.12,-3.85 3.2,-5.82l0.23 -0.43c2.17,-3.98 4.36,-8.07 6.6,-12.29l0.14 -0.26c1.11,-2.1 2.23,-4.23 3.36,-6.39 0.03,-0.06 0.06,-0.12 0.09,-0.17 1.14,-2.18 2.28,-4.39 3.44,-6.63l0.27 -0.52c1.05,-2.03 2.1,-4.08 3.16,-6.16l0.56 -1.1 3.07 -6.08 0.33 -0.66c0.06,-0.12 0.12,-0.25 0.19,-0.37 2.34,-4.67 4.72,-9.45 7.13,-14.35l0.35 -0.72c1.16,-2.37 2.33,-4.76 3.51,-7.18l0.23 -0.48 0.39 -0.82 0.04 -0.08 0.03 -0.06 0.04 -0.08 0.06 -0.12 17.3 -36.41 0.24 -0.5z"/>
  </g>
 </g>
</svg>
