<?xml version="1.0" encoding="UTF-8"?>
<!DOCTYPE svg PUBLIC "-//W3C//DTD SVG 1.1//EN" "http://www.w3.org/Graphics/SVG/1.1/DTD/svg11.dtd">
<!-- Creator: CorelDRAW -->
<svg xmlns="http://www.w3.org/2000/svg" xml:space="preserve" width="276.157mm" height="276.157mm" version="1.1" style="shape-rendering:geometricPrecision; text-rendering:geometricPrecision; image-rendering:optimizeQuality; fill-rule:evenodd; clip-rule:evenodd"
viewBox="0 0 27601.49 27601.49"
 xmlns:xlink="http://www.w3.org/1999/xlink"
 xmlns:xodm="http://www.corel.com/coreldraw/odm/2003">
 <defs>
  <style type="text/css">
   <![CDATA[
    .fil3 {fill:none}
    .fil6 {fill:#FEFEFE}
    .fil0 {fill:#FEFEFE}
    .fil8 {fill:#E6E7E8}
    .fil10 {fill:#7700FF}
    .fil9 {fill:url(#id15)}
    .fil2 {fill:url(#id16)}
    .fil4 {fill:url(#id17)}
    .fil1 {fill:url(#id18)}
    .fil5 {fill:url(#id19)}
    .fil7 {fill:url(#id20)}
   ]]>
  </style>
    <clipPath id="id0">
     <path d="M11616.24 15250.87c-771.9,1978.26 -1311.59,3131.02 -1619.08,3458.3 994.18,1679.6 1965.49,1834.83 2913.95,465.73 748.2,-1080.16 1639.3,-3902.21 2183.25,-5251.49 1211.96,-3006.33 2159.38,-5226.2 2842.26,-6659.62 232.2,-487.41 433.82,-883.88 604.84,-1189.43 -913.89,-114.6 -1717.37,-9.88 -2410.45,314.13 -1552.81,725.98 -1828.73,1971.86 -2414.85,3434.99 -617.11,1540.43 -1317.09,3349.57 -2099.92,5427.39z"/>
    </clipPath>
      <mask id="id1">
  <linearGradient id="id2" gradientUnits="userSpaceOnUse" x1="10382.67" y1="16734.11" x2="17985.9" y2="8378.99">
   <stop offset="0" style="stop-opacity:0.14902; stop-color:white"/>
   <stop offset="1" style="stop-opacity:0.0509804; stop-color:white"/>
  </linearGradient>
       <rect style="fill:url(#id2)" x="9817.12" y="6019.46" width="8734.33" height="13074.18"/>
      </mask>
    <mask id="id3">
  <linearGradient id="id4" gradientUnits="userSpaceOnUse" x1="16504.76" y1="13866.16" x2="23112.48" y2="13866.16">
   <stop offset="0" style="stop-opacity:0; stop-color:white"/>
   <stop offset="1" style="stop-opacity:1; stop-color:white"/>
  </linearGradient>
     <rect style="fill:url(#id4)" x="16504.76" y="7263.8" width="6607.72" height="13204.73"/>
    </mask>
    <mask id="id5">
  <linearGradient id="id6" gradientUnits="userSpaceOnUse" x1="17576.22" y1="11413.62" x2="22335.38" y2="19596.17">
   <stop offset="0" style="stop-opacity:0.101961; stop-color:white"/>
   <stop offset="1" style="stop-opacity:0.431373; stop-color:white"/>
  </linearGradient>
     <rect style="fill:url(#id6)" x="16323.89" y="10453.49" width="7263.82" height="10102.8"/>
    </mask>
    <mask id="id7">
  <linearGradient id="id8" gradientUnits="userSpaceOnUse" x1="10689.01" y1="13330.06" x2="18550.41" y2="12841.49">
   <stop offset="0" style="stop-opacity:0; stop-color:white"/>
   <stop offset="1" style="stop-opacity:0.368627; stop-color:white"/>
  </linearGradient>
     <rect style="fill:url(#id8)" x="10697.97" y="6074.37" width="7843.49" height="14022.8"/>
    </mask>
    <mask id="id9">
  <linearGradient id="id10" gradientUnits="userSpaceOnUse" x1="10234.83" y1="15687.8" x2="3426.32" y2="7899.8">
   <stop offset="0" style="stop-opacity:0; stop-color:white"/>
   <stop offset="1" style="stop-opacity:0.509804; stop-color:white"/>
  </linearGradient>
     <rect style="fill:url(#id10)" x="3866.32" y="6108.52" width="6780.65" height="11690.81"/>
    </mask>
    <mask id="id11">
  <linearGradient id="id12" gradientUnits="userSpaceOnUse" x1="23673.33" y1="18360.18" x2="15401.03" y2="8672.14">
   <stop offset="0" style="stop-opacity:0; stop-color:white"/>
   <stop offset="1" style="stop-opacity:0.458824; stop-color:white"/>
  </linearGradient>
     <rect style="fill:url(#id12)" x="15035.83" y="6074.37" width="9002.71" height="14883.57"/>
    </mask>
    <mask id="id13">
  <linearGradient id="id14" gradientUnits="userSpaceOnUse" x1="3749.11" y1="10199.91" x2="11733.46" y2="14607.67">
   <stop offset="0" style="stop-opacity:0; stop-color:white"/>
   <stop offset="1" style="stop-opacity:0.458824; stop-color:white"/>
  </linearGradient>
     <rect style="fill:url(#id14)" x="3866.32" y="6098.4" width="7749.92" height="12610.78"/>
    </mask>
  <linearGradient id="id15" gradientUnits="userSpaceOnUse" x1="17888.81" y1="17495.44" x2="24993.16" y2="17495.44">
   <stop offset="0" style="stop-opacity:1; stop-color:#181D9F"/>
   <stop offset="1" style="stop-opacity:1; stop-color:#32BAE8"/>
  </linearGradient>
  <linearGradient id="id16" gradientUnits="userSpaceOnUse" x1="12026.95" y1="19469.48" x2="16511.67" y2="6657.15">
   <stop offset="0" style="stop-opacity:1; stop-color:#3200A6"/>
   <stop offset="0.490196" style="stop-opacity:1; stop-color:#2D73E2"/>
   <stop offset="1" style="stop-opacity:1; stop-color:#37DBF7"/>
  </linearGradient>
  <linearGradient id="id17" gradientUnits="userSpaceOnUse" x1="15010.85" y1="9764.27" x2="24063.51" y2="17268.05">
   <stop offset="0" style="stop-opacity:1; stop-color:#181D9F"/>
   <stop offset="1" style="stop-opacity:1; stop-color:#00A6FF"/>
  </linearGradient>
  <linearGradient id="id18" gradientUnits="userSpaceOnUse" x1="11123.96" y1="16765.23" x2="4358.61" y2="8042.36">
   <stop offset="0" style="stop-opacity:1; stop-color:#181D9F"/>
   <stop offset="1" style="stop-opacity:1; stop-color:#37DBF7"/>
  </linearGradient>
  <linearGradient id="id19" gradientUnits="userSpaceOnUse" x1="16504.76" y1="13866.16" x2="23112.48" y2="13866.16">
   <stop offset="0" style="stop-opacity:1; stop-color:#34BBF1"/>
   <stop offset="1" style="stop-opacity:1; stop-color:white"/>
  </linearGradient>
  <linearGradient id="id20" gradientUnits="userSpaceOnUse" x1="11123.96" y1="16765.23" x2="4358.61" y2="8042.36">
   <stop offset="0" style="stop-opacity:1; stop-color:#181D9F"/>
   <stop offset="1" style="stop-opacity:1; stop-color:#00D9FF"/>
  </linearGradient>
 </defs>
 <g id="Camada_x0020_1">
  <metadata id="CorelCorpID_0Corel-Layer"/>
  <g id="_2794171280928">
   <circle class="fil0" cx="13800.74" cy="13800.74" r="13800.74"/>
   <path class="fil1" d="M9997.16 18709.18c307.49,-327.28 847.18,-1480.05 1619.08,-3458.3 -1500.73,-3423.39 -2176.82,-6162.02 -3257.04,-7572.22 -1276,-1665.81 -2504.51,-1603 -4492.88,-1568.83 581.66,334.73 1276.59,1209.05 1641.16,1787.21 1252.87,1986.88 2231.45,5605.33 4489.67,10812.15z"/>
   <path class="fil2" d="M11616.24 15250.87c-771.9,1978.26 -1311.59,3131.02 -1619.08,3458.3 994.18,1679.6 1965.49,1834.83 2913.95,465.73 748.2,-1080.16 1639.3,-3902.21 2183.25,-5251.49 1211.96,-3006.33 2159.38,-5226.2 2842.26,-6659.62 232.2,-487.41 433.82,-883.88 604.84,-1189.43 -913.89,-114.6 -1717.37,-9.88 -2410.45,314.13 -1552.81,725.98 -1828.73,1971.86 -2414.85,3434.99 -617.11,1540.43 -1317.09,3349.57 -2099.92,5427.39z"/>
   <g style="clip-path:url(#id0)">
    <g>
     <path id="_1" class="fil0" style="mask:url(#id1)" d="M10113.88 19083.65c336.42,-514.06 856.04,-1631.95 1562.85,-3381.31 849.47,-2171.57 1804.47,-4900.73 2470.97,-6510.66 633.04,-1529.12 836.24,-2132.88 2412.35,-2891.55 605.37,-291.4 1312.05,-251.62 1980.78,-224.65 0.21,-0.37 0.41,-0.73 0.62,-1.1 -660.41,-82.82 -1263.16,-51.1 -1808.26,95.13 -209.22,56.13 -409.96,129.12 -602.19,219 -1552.81,725.98 -1828.73,1971.86 -2414.85,3434.99 -617.11,1540.43 -1317.09,3349.57 -2099.92,5427.39 -771.9,1978.26 -1481.63,3430.3 -1789.13,3757.58 84.42,142.62 202.68,-45.44 286.76,75.19z"/>
    </g>
   </g>
   <path class="fil3" d="M11616.24 15250.87c-771.9,1978.26 -1311.59,3131.02 -1619.08,3458.3 994.18,1679.6 1965.49,1834.83 2913.95,465.73 748.2,-1080.16 1639.3,-3902.21 2183.25,-5251.49 1211.96,-3006.33 2159.38,-5226.2 2842.26,-6659.62 232.2,-487.41 433.82,-883.88 604.84,-1189.43 -913.89,-114.6 -1717.37,-9.88 -2410.45,314.13 -1552.81,725.98 -1828.73,1971.86 -2414.85,3434.99 -617.11,1540.43 -1317.09,3349.57 -2099.92,5427.39z"/>
   <path class="fil4" d="M15036.68 15452.22c-26.59,2010.02 576.41,3511.6 1763.76,4351.28 1475.37,1043.37 3283.59,1494.75 4978.31,867.65 913.44,-338.01 1691.12,-926.37 2259.79,-1676.23 -1842.38,2086.6 -4522.4,1367.05 -5590.82,-1352.09 -323.16,-822.46 -542.12,-1803.76 -553.21,-2935.44l646.96 -8633.01c-918.52,1471.27 -2235.14,4842.72 -3447.1,7849.05 -24.94,135.02 -55.88,1392.96 -57.68,1528.8z"/>
   <path class="fil5" style="mask:url(#id3)" d="M16522.89 10453.49c-22.75,1158.22 -28.34,2812.91 8.35,4043.46 20.48,686.88 65.88,1330.84 151.68,1856.76 14.13,86.63 30.92,173.42 50.28,260.21 355.51,1593.54 1578.26,3184.33 3155.68,3690.69 1125.21,361.2 2242.9,97.79 3223.6,-519.39 -2344.16,1399.81 -5232.95,-804.18 -5217.98,-5077.84l-147.18 -7443.59c-336.8,706.95 -548.63,1605.21 -1014.12,2694.76 -68.7,160.82 -138.81,325.79 -210.31,494.93z"/>
   <path class="fil0" style="mask:url(#id5)" d="M16531.23 14496.95c-36.68,-1230.55 -31.09,-2885.24 -8.35,-4043.46 -61.83,146.25 -124.72,295.63 -188.64,448.12 -18.17,1321.42 -7.63,2656.81 -4,3585.38 2.69,686.2 29.98,1309.72 123.2,1877.03 58.54,356.31 153.45,701.11 279.76,1029.67 1058.73,2754.17 4323,4367.33 6854.51,2057.14 -153.17,129.49 -312.08,240.74 -475.23,334.4 -980.69,617.18 -2098.39,880.6 -3223.6,519.39 -1577.43,-506.37 -2800.17,-2097.16 -3155.68,-3690.69 -19.36,-86.79 -36.15,-173.58 -50.28,-260.21 -85.81,-525.92 -131.2,-1169.89 -151.68,-1856.76z"/>
   <path class="fil6" style="mask:url(#id7)" d="M13851.61 16853.06c-884.46,2284.52 -1763.17,3501.43 -3153.64,2791.31 751.04,732.68 1488.75,576.19 2213.14,-469.46 748.2,-1080.16 1639.3,-3902.21 2183.25,-5251.49 449.73,-1115.55 863.02,-2122.82 1239.89,-3021.81 63.93,-152.49 126.81,-301.86 188.64,-448.12 71.5,-169.14 141.61,-334.13 210.31,-494.93 465.49,-1089.55 866.62,-1987.8 1203.42,-2694.76 232.2,-487.41 433.82,-883.88 604.84,-1189.43 -653.79,1069.46 -1251.96,2261.6 -1808.26,3502.53 -1086.1,2422.77 -2012.56,5031.49 -2881.59,7276.15z"/>
   <path class="fil7" d="M9997.16 18709.18c4.64,-4.94 9.35,-10.07 14.08,-15.39l1.27 -1.44c4.52,-5.08 9.08,-10.31 13.68,-15.73l0.94 -1.1c4.77,-5.62 9.58,-11.4 14.45,-17.39l0.53 -0.65c4.85,-5.96 9.76,-12.11 14.71,-18.44l0.71 -0.9 0.71 -0.92c4.82,-6.17 9.67,-12.5 14.57,-19.01l1.39 -1.83c4.91,-6.52 9.84,-13.2 14.84,-20.06l1.31 -1.79c5.21,-7.17 10.47,-14.51 15.79,-22.04l0.24 -0.33 0.53 -0.75c5.3,-7.51 10.63,-15.2 16.02,-23.07l1.04 -1.53c5.22,-7.63 10.48,-15.42 15.8,-23.39l1.78 -2.67c5.12,-7.7 10.28,-15.54 15.49,-23.55l1.98 -3.04c5.63,-8.68 11.29,-17.5 17.02,-26.54l0.23 -0.37c5.77,-9.11 11.6,-18.42 17.47,-27.89l1.95 -3.14c5.58,-9.02 11.2,-18.18 16.87,-27.53l1.29 -2.13c5.73,-9.46 11.51,-19.09 17.34,-28.89l1.08 -1.8 1.22 -2.06c5.63,-9.48 11.28,-19.1 17,-28.9l1.12 -1.92 0.57 -0.99c6.22,-10.67 12.49,-21.52 18.81,-32.56l0.62 -1.09c13.14,-22.96 26.49,-46.69 40.08,-71.24l0.39 -0.7c6.56,-11.85 13.17,-23.89 19.83,-36.12l1.43 -2.64c13.44,-24.69 27.09,-50.1 40.95,-76.29l0.85 -1.6c6.9,-13.04 13.86,-26.26 20.86,-39.67l0.56 -1.08c7.06,-13.51 14.16,-27.23 21.33,-41.12l1.67 -3.25c6.49,-12.59 13.02,-25.34 19.59,-38.24l3.49 -6.86 19.08 -37.72 2.07 -4.09 1.16 -2.32c14.54,-28.97 29.29,-58.63 44.26,-89.04l2.2 -4.47c7.23,-14.7 14.48,-29.52 21.8,-44.57l1.45 -2.98 2.45 -5.07c-1234.1,-3486.95 -2110.29,-6826.43 -3361.44,-8795.68 -771.3,-1213.99 -2082.62,-2247.19 -3190.04,-2818.85 3.6,2.44 7.21,4.98 10.81,7.46 3.76,2.58 7.52,5.13 11.27,7.76 5.6,3.9 11.19,7.88 16.81,11.85l10.4 7.38c5.51,3.95 11,7.99 16.53,12.01l11.07 8.08c5.28,3.9 10.57,7.88 15.86,11.84 3.85,2.88 7.7,5.72 11.54,8.64l0.46 0.35c8.79,6.67 17.58,13.41 26.4,20.26l0.4 0.31 3.97 3.12c7.84,6.11 15.67,12.26 23.52,18.51l8.36 6.72c6.31,5.06 12.61,10.11 18.94,15.26l11.58 9.53c5.3,4.36 10.59,8.7 15.9,13.11l12.2 10.24 15.61 13.17 11.57 9.9 16.49 14.2 11.91 10.39 15.05 13.22 12.62 11.2 16.41 14.72 10.58 9.56 16.96 15.48 11.71 10.78 14.95 13.88 12.99 12.15 15.78 14.93 11.54 10.96 18.86 18.13 8.07 7.78c6.22,6.03 12.41,12.11 18.63,18.2l10.18 9.97 18.51 18.36 8.17 8.11 1.14 1.14c8.85,8.85 17.68,17.75 26.51,26.71l0.78 0.79c8.57,8.69 17.13,17.42 25.67,26.21l0.92 0.95 13.75 14.22 13.61 14.12 15.79 16.55 10.65 11.19 15.52 16.47 12.58 13.39 13.01 13.98 14.47 15.61 12.44 13.53 14.42 15.75 13.17 14.49 13.32 14.73 12.84 14.28 14.43 16.15 13.33 15 13.12 14.87 11.78 13.39 16.78 19.22 10.15 11.67 15.28 17.71 11.15 12.96 13.83 16.19 12.72 14.94 0.69 0.81c8.11,9.56 16.17,19.13 24.23,28.72l0.71 0.84 24.77 29.65 15.58 18.84 10.03 12.13 13.02 15.91 12.15 14.86 13.74 16.93 10.99 13.58 13.89 17.27 11.07 13.82 13.52 16.98 10.94 13.8 14.07 17.84 9.55 12.15 14.36 18.37 10.06 12.92 13.93 18 9.79 12.7 12.87 16.78 13.1 17.17 9.92 13.05 12.02 15.89 12.01 15.94 11 14.71 11.18 14.97 20.59 27.78 1.15 1.55c7.71,10.43 15.35,20.86 22.94,31.24l0.31 0.42c7.11,9.72 14.16,19.42 21.17,29.1l1.22 1.69 19.64 27.27 0.58 0.82 13.58 19.01 7.76 10.88 11.31 15.98 9.98 14.14 10.12 14.43 10.87 15.54 9.76 14.06 9.78 14.13 10.06 14.61 10.87 15.86 8.23 12.07 11.26 16.62 8.11 12 10.86 16.18 8.73 13.05 10.07 15.17 7.46 11.25 12.59 19.19 5.8 8.85 10.4 16.01 7.78 12 1 1.54 15.37 23.96 1.19 1.86c5.46,8.55 10.83,17.04 16.14,25.46 1252.87,1986.88 2231.45,5605.33 4489.67,10812.15zm-4794.64 -11256.58c7.71,10.44 15.35,20.85 22.94,31.24"/>
   <path class="fil8" style="mask:url(#id9)" d="M10537.11 17799.33c-1234.1,-3486.95 -2110.29,-6826.43 -3361.44,-8795.68 -771.26,-1213.93 -2082.42,-2246.94 -3189.81,-2818.62 -40.27,-27.34 -80.16,-52.54 -119.53,-75.2l74.88 -1.31c1278.17,559.49 2689.82,1624.05 3393.23,2790.55 1388.68,2302.95 2399.37,6148.94 3312.54,8669.13l-1.45 3.1 -107.38 225.92 -0.05 0.1 -0.3 0.62 -0.24 0.51 -0.19 0.39 -0.25 0.49z"/>
   <path class="fil9" d="M17894.5 14707.39c2.11,5041.08 3867.78,7147.44 6144.04,4287.54 486.39,-641.38 819.88,-1400.91 954.63,-2222.98 -863.95,1538.75 -2674.54,2278.93 -4369.02,1786.12 -1694.49,-492.82 -2825.69,-2088.59 -2729.64,-3850.67z"/>
   <path class="fil10" style="mask:url(#id11)" d="M15036.68 15452.22c-26.59,2010.02 576.41,3511.6 1763.76,4351.28 1475.37,1043.37 3283.59,1494.75 4978.31,867.65 913.44,-338.01 1691.12,-926.37 2259.79,-1676.23 -1842.38,2086.6 -4522.4,1367.05 -5590.82,-1352.09 -323.16,-822.46 -542.12,-1803.76 -553.21,-2935.44l646.96 -8633.01c-864.13,1342.92 -2235.14,4842.72 -3447.1,7849.05 -24.94,135.02 -55.88,1392.96 -57.68,1528.8z"/>
   <path class="fil10" style="mask:url(#id13)" d="M3985.88 6184.97c0.14,0.1 0.29,0.2 0.44,0.3 3038.92,1569.11 5645.97,2914.56 -0.44,-0.3zm6661.11 11383.24c267.08,-573.34 590.16,-1345.79 969.25,-2317.33 -1500.73,-3423.39 -2176.82,-6162.02 -3257.04,-7572.22 -1259.91,-1644.8 -2473.5,-1604.31 -4418,-1570.14l0 0.01c-24.84,0.43 -49.8,0.87 -74.88,1.3 39.3,22.61 79.11,47.69 119.3,74.97 0.09,0.05 0.18,0.09 0.25,0.17 0.15,0.1 0.3,0.2 0.45,0.3 3.38,2.3 6.77,4.61 10.14,6.94 3.75,2.58 7.51,5.18 11.25,7.79 5.61,3.9 11.21,7.85 16.83,11.83 3.46,2.45 6.92,4.92 10.38,7.41 5.52,3.95 11.03,7.95 16.56,11.97 3.68,2.69 7.36,5.39 11.04,8.12 5.29,3.9 10.58,7.84 15.88,11.81 3.84,2.87 7.68,5.77 11.51,8.68 0.16,0.11 0.31,0.23 0.46,0.35 8.79,6.66 17.59,13.41 26.4,20.26 0.14,0.1 0.27,0.2 0.4,0.31 1.33,1.03 2.66,2.06 3.99,3.1 7.83,6.11 15.66,12.28 23.51,18.52 2.79,2.23 5.58,4.46 8.38,6.7 6.3,5.05 12.6,10.14 18.92,15.28 3.87,3.15 7.74,6.32 11.6,9.5 5.29,4.36 10.58,8.74 15.88,13.14 4.07,3.39 8.15,6.8 12.22,10.22 5.2,4.37 10.39,8.76 15.6,13.18 3.86,3.28 7.73,6.58 11.58,9.88 5.5,4.72 10.98,9.46 16.48,14.22 3.98,3.44 7.95,6.91 11.92,10.38 5.02,4.39 10.02,8.8 15.04,13.23 4.21,3.72 8.42,7.45 12.62,11.2 5.47,4.88 10.94,9.78 16.42,14.71 3.52,3.18 7.05,6.37 10.57,9.57 5.65,5.14 11.3,10.29 16.96,15.48 3.91,3.58 7.81,7.18 11.71,10.78 4.99,4.61 9.96,9.24 14.95,13.88 4.33,4.04 8.66,8.09 12.98,12.16 5.27,4.95 10.53,9.91 15.8,14.91 3.84,3.65 7.69,7.31 11.52,10.98 6.3,6.01 12.58,12.04 18.87,18.12 2.69,2.59 5.37,5.19 8.06,7.79 6.22,6.04 12.43,12.09 18.64,18.18 3.4,3.33 6.79,6.66 10.17,9.99 6.18,6.09 12.35,12.2 18.52,18.35 2.72,2.7 5.43,5.41 8.15,8.13 0.38,0.38 0.76,0.76 1.14,1.14 8.85,8.85 17.68,17.75 26.51,26.71 0.26,0.26 0.52,0.52 0.78,0.79 8.57,8.69 17.12,17.42 25.67,26.21 0.31,0.32 0.62,0.63 0.92,0.95 4.6,4.72 9.19,9.46 13.77,14.2 4.54,4.7 9.08,9.42 13.6,14.13 5.28,5.5 10.54,11.01 15.8,16.54 3.56,3.73 7.1,7.46 10.64,11.2 5.19,5.47 10.36,10.95 15.53,16.46 4.2,4.46 8.39,8.93 12.57,13.4 4.35,4.65 8.69,9.31 13.02,13.97 4.83,5.2 9.66,10.4 14.46,15.62 4.16,4.5 8.31,9.01 12.45,13.52 4.82,5.24 9.62,10.49 14.42,15.75 4.4,4.83 8.79,9.66 13.17,14.49 4.45,4.91 8.89,9.81 13.32,14.73 4.29,4.76 8.57,9.52 12.84,14.29 4.82,5.37 9.63,10.75 14.43,16.14 4.45,5 8.89,10 13.32,15.01 4.39,4.95 8.77,9.9 13.13,14.86 3.93,4.46 7.86,8.93 11.77,13.4 5.61,6.4 11.2,12.8 16.79,19.22 3.38,3.89 6.77,7.78 10.14,11.67 5.11,5.9 10.2,11.79 15.29,17.7 3.72,4.33 7.44,8.65 11.14,12.97 4.62,5.39 9.24,10.78 13.84,16.19 4.24,4.98 8.48,9.95 12.71,14.94 0.23,0.28 0.45,0.55 0.68,0.82 8.11,9.56 16.18,19.12 24.23,28.72 0.24,0.28 0.48,0.56 0.71,0.84 8.29,9.86 16.54,19.75 24.77,29.65 5.22,6.27 10.41,12.54 15.6,18.82 3.35,4.05 6.69,8.11 10.01,12.15 4.36,5.3 8.71,10.59 13.04,15.89 4.06,4.96 8.11,9.91 12.14,14.87 4.6,5.64 9.18,11.28 13.75,16.92 3.67,4.54 7.33,9.07 10.98,13.59 4.65,5.76 9.28,11.51 13.89,17.27 3.7,4.61 7.39,9.22 11.07,13.82 4.52,5.67 9.03,11.32 13.52,16.98 3.66,4.6 7.31,9.21 10.94,13.8 4.71,5.95 9.41,11.89 14.08,17.84 3.19,4.05 6.37,8.1 9.55,12.15 4.8,6.13 9.59,12.24 14.36,18.37 3.36,4.31 6.71,8.62 10.05,12.92 4.66,6.01 9.31,12 13.93,18 3.28,4.24 6.54,8.48 9.79,12.7 4.31,5.6 8.6,11.19 12.87,16.78 4.39,5.73 8.76,11.45 13.11,17.17 3.31,4.35 6.62,8.71 9.91,13.05 4.02,5.31 8.03,10.6 12.02,15.89 4.02,5.32 8.02,10.63 12,15.95 3.69,4.9 7.36,9.8 11.02,14.7 3.74,5 7.46,9.98 11.17,14.97 6.91,9.29 13.76,18.54 20.59,27.79 0.38,0.51 0.76,1.03 1.14,1.55 7.71,10.43 15.35,20.86 22.94,31.24 0.1,0.14 0.21,0.28 0.31,0.42 7.11,9.72 14.16,19.42 21.17,29.1l1.22 1.69c6.6,9.12 13.14,18.2 19.64,27.27 0.2,0.27 0.39,0.54 0.59,0.81 4.56,6.35 9.09,12.68 13.59,19.01 2.59,3.63 5.18,7.26 7.75,10.88 3.8,5.34 7.57,10.66 11.32,15.98 3.34,4.72 6.67,9.44 9.97,14.14 3.4,4.82 6.78,9.63 10.13,14.43 3.64,5.19 7.26,10.37 10.86,15.54 3.27,4.7 6.53,9.39 9.77,14.06 3.27,4.72 6.54,9.44 9.77,14.13 3.37,4.89 6.73,9.75 10.06,14.61 3.65,5.31 7.27,10.59 10.87,15.87 2.75,4.03 5.5,8.06 8.23,12.06 3.78,5.56 7.54,11.09 11.27,16.62 2.71,4.01 5.41,8.02 8.1,12 3.65,5.41 7.27,10.8 10.87,16.18 2.92,4.37 5.83,8.72 8.72,13.05 3.38,5.08 6.74,10.13 10.08,15.17 2.49,3.76 4.97,7.52 7.44,11.26 4.24,6.42 8.45,12.81 12.61,19.18 1.94,2.96 3.87,5.91 5.79,8.85 3.5,5.36 6.97,10.69 10.41,16.01 2.6,4.02 5.19,8.02 7.77,12.01 0.33,0.51 0.66,1.02 0.99,1.54 5.19,8.04 10.3,16.02 15.37,23.96 0.4,0.62 0.79,1.24 1.19,1.86 5.46,8.55 10.83,17.04 16.14,25.46 1252.87,1986.88 2231.45,5605.33 4489.67,10812.15 4.64,-4.94 9.35,-10.07 14.08,-15.39l1.27 -1.44c4.52,-5.08 9.08,-10.31 13.68,-15.73l0.94 -1.1c4.77,-5.62 9.58,-11.4 14.45,-17.39l0.53 -0.65c4.85,-5.96 9.76,-12.11 14.71,-18.44l0.71 -0.9 0.71 -0.92c4.82,-6.17 9.67,-12.5 14.57,-19.01l1.39 -1.83c4.91,-6.52 9.84,-13.2 14.84,-20.06l1.31 -1.79c5.21,-7.17 10.47,-14.51 15.79,-22.04l0.24 -0.33c0.18,-0.25 0.35,-0.5 0.53,-0.75 5.29,-7.51 10.63,-15.2 16.02,-23.07l1.04 -1.53c5.22,-7.63 10.48,-15.42 15.8,-23.39l1.78 -2.67c5.12,-7.7 10.28,-15.54 15.49,-23.55l1.98 -3.04c5.63,-8.68 11.29,-17.5 17.02,-26.54l0.23 -0.37c5.77,-9.11 11.6,-18.42 17.47,-27.89l1.95 -3.14c5.58,-9.02 11.2,-18.18 16.87,-27.53l1.29 -2.13c5.73,-9.46 11.51,-19.09 17.34,-28.89l1.08 -1.8c0.4,-0.69 0.81,-1.37 1.22,-2.06 5.63,-9.48 11.29,-19.11 17,-28.9 0.37,-0.64 0.75,-1.28 1.12,-1.92l0.57 -0.99c6.22,-10.67 12.49,-21.52 18.81,-32.56l0.62 -1.09c13.14,-22.96 26.49,-46.69 40.08,-71.24l0.39 -0.7c6.56,-11.85 13.17,-23.9 19.83,-36.12l1.43 -2.64c13.44,-24.69 27.09,-50.1 40.95,-76.29l0.85 -1.6c6.9,-13.04 13.86,-26.26 20.86,-39.67 0.18,-0.36 0.37,-0.72 0.56,-1.08 7.06,-13.52 14.16,-27.23 21.33,-41.12l1.67 -3.25c6.49,-12.59 13.02,-25.34 19.59,-38.24l3.49 -6.86 19.08 -37.72 2.07 -4.09c0.38,-0.77 0.77,-1.55 1.16,-2.32 14.54,-28.97 29.29,-58.63 44.26,-89.04l2.2 -4.47c7.23,-14.7 14.48,-29.52 21.8,-44.57l1.45 -2.98 2.45 -5.07 0.25 -0.49 0.19 -0.39 0.24 -0.51 0.35 -0.72 107.38 -225.92 1.47 -3.09z"/>
  </g>
 </g>
</svg>
